<svg width="225" height="136" viewBox="0 0 225 136" fill="none" xmlns="http://www.w3.org/2000/svg">
<path d="M120.864 -2.10583L0.333008 49.8663V43.8098L106.82 -2.10583H120.864Z" fill="white"/>
<path d="M159.598 -2.10583L0.333008 66.5675V60.5111L145.554 -2.10583H159.598Z" fill="white"/>
<path d="M198.346 -2.10583L0.333008 83.2733V77.2169L184.298 -2.10583H198.346Z" fill="white"/>
<path d="M235.017 -2.10583V-1.21762L0.333008 99.9745V93.9181L223.032 -2.10583H235.017Z" fill="white"/>
<path d="M235.017 9.43176L0.333008 110.624V116.68L235.017 15.4882V9.43176Z" fill="white"/>
<path d="M235.017 26.1331L0.333008 127.325V133.382L235.017 32.1895V26.1331Z" fill="white"/>
<path d="M235.017 42.8389L0.333008 144.031V150.087L235.017 48.8953V42.8389Z" fill="white"/>
<path d="M235.017 59.54L0.333008 160.732V166.789L235.017 65.5965V59.54Z" fill="white"/>
<path d="M235.017 76.2458L0.333008 177.438V183.494L235.017 82.3023V76.2458Z" fill="white"/>
<path d="M235.017 92.947L0.333008 194.139V200.196L235.017 99.0035V92.947Z" fill="white"/>
<path d="M235.017 109.653L0.333008 210.845V216.901L235.017 115.709V109.653Z" fill="white"/>
</svg>
