<svg width="280" height="74" viewBox="0 0 280 74" fill="none" xmlns="http://www.w3.org/2000/svg">
<g clip-path="url(#clip0_885_1032)">
<path opacity="0.19" d="M29.89 11.1845C33.58 11.1845 36.98 12.4945 39.76 14.6845C44.39 6.19451 52.91 0.494507 62.66 0.494507C74.52 0.494507 84.56 8.92451 88.01 20.5645C89.64 19.7045 91.46 19.2045 93.39 19.2045C99.9 19.2045 105.22 24.7145 105.64 31.6745H0C0.19 29.2345 1.13 26.8545 2.85 24.9945C5.92 21.6545 10.51 20.9945 14.2 22.9845C16.6 16.0945 22.71 11.1845 29.89 11.1845Z" fill="#ACBFBC"/>
<path opacity="0.19" d="M249.14 40.3645C245.39 40.3645 241.93 41.7445 239.11 44.0545C234.39 35.1145 225.74 29.1145 215.83 29.1145C203.78 29.1145 193.58 37.9845 190.07 50.2345C188.42 49.3245 186.57 48.8045 184.6 48.8045C177.98 48.8045 172.58 54.6045 172.15 61.9345H279.5C279.31 59.3745 278.35 56.8645 276.61 54.9045C273.49 51.3945 268.82 50.6945 265.08 52.7845C262.64 45.5345 256.43 40.3645 249.13 40.3645H249.14Z" fill="#ACBFBC"/>
</g>
<defs>
<clipPath id="clip0_885_1032">
<rect width="279.51" height="72.88" fill="white" transform="translate(0 0.494507)"/>
</clipPath>
</defs>
</svg>
