<svg width="537" height="476" viewBox="0 0 537 476" fill="none" xmlns="http://www.w3.org/2000/svg">
<path d="M275.76 0L0 112.93V99.77L243.63 0H275.76Z" fill="#D8E8FF"/>
<path d="M364.38 0L0 149.22V136.06L332.25 0H364.38Z" fill="#D8E8FF"/>
<path d="M453.03 0L0 185.52V172.36L420.89 0H453.03Z" fill="#D8E8FF"/>
<path d="M536.93 0V1.93L0 221.81V208.65L509.51 0H536.93Z" fill="#D8E8FF"/>
<path d="M536.93 25.0701L0 244.95V258.11L536.93 38.2301V25.0701Z" fill="#D8E8FF"/>
<path d="M536.93 61.3599L0 281.24V294.4L536.93 74.5199V61.3599Z" fill="#D8E8FF"/>
<path d="M536.93 97.6599L0 317.54V330.7L536.93 110.82V97.6599Z" fill="#D8E8FF"/>
<path d="M536.93 133.95L0 353.83V366.99L536.93 147.11V133.95Z" fill="#D8E8FF"/>
<path d="M536.93 170.25L0 390.13V403.29L536.93 183.41V170.25Z" fill="#D8E8FF"/>
<path d="M536.93 206.54L0 426.42V439.58L536.93 219.7V206.54Z" fill="#D8E8FF"/>
<path d="M536.93 242.84L0 462.72V475.88L536.93 256V242.84Z" fill="#D8E8FF"/>
</svg>
