<svg width="287" height="365" viewBox="0 0 287 365" fill="none" xmlns="http://www.w3.org/2000/svg">
<mask id="mask0_1872_12347" style="mask-type:luminance" maskUnits="userSpaceOnUse" x="0" y="0" width="287" height="366">
<path d="M287 365.242V0H0V365.229H287V365.242Z" fill="white"/>
</mask>
<g mask="url(#mask0_1872_12347)">
<path fill-rule="evenodd" clip-rule="evenodd" d="M-184.953 202.034L-184.956 202.039L-184.995 202.117C-186.188 203.712 -188.704 201.896 -187.498 200.301L-187.495 200.296C-177.586 187.132 -167.599 173.864 -156.264 161.88C-156.173 161.673 -156.043 161.465 -155.823 161.283C-155.576 161.076 -155.33 160.881 -155.083 160.687C-154.863 160.46 -154.64 160.237 -154.417 160.014L-154.415 160.012C-154.192 159.789 -153.968 159.565 -153.747 159.338C-153.54 158.923 -153.332 158.495 -153.151 158.08C-152.1 155.693 -151.399 153.189 -150.932 150.621C-150.842 150.154 -150.751 149.687 -150.686 149.207C-150.219 145.952 -150.115 142.618 -150.245 139.31C-150.336 136.833 -150.517 134.368 -150.738 131.904C-151.074 128.072 -151.518 124.246 -151.961 120.422L-151.961 120.421C-152.921 112.142 -153.88 103.868 -153.747 95.5456C-153.384 73.1184 -144.278 51.1842 -129.452 34.3995C-125.626 30.0671 -121.41 26.0979 -116.87 22.5309C-111.915 18.6525 -106.584 15.2541 -100.916 12.4912C-106.882 15.5005 -110.203 21.9083 -113.07 27.9399C-114.289 30.5081 -115.482 33.0894 -116.676 35.6836C-121.916 47.1112 -126.754 58.7853 -130.464 70.7447C-133.473 80.4601 -135.756 90.3571 -136.872 100.488C-137.274 104.094 -137.52 107.725 -137.741 111.357C-137.787 112.108 -137.833 112.859 -137.878 113.61L-137.878 113.61L-137.878 113.61L-137.878 113.611L-137.878 113.611C-138.327 121.03 -138.774 128.437 -140.27 135.704C-140.854 138.545 -141.645 141.541 -142.696 144.525C-143.565 146.963 -144.59 149.389 -145.809 151.685C-145.619 151.51 -145.432 151.331 -145.244 151.153L-145.243 151.152L-145.243 151.152L-145.243 151.151L-145.242 151.151C-144.929 150.853 -144.615 150.554 -144.291 150.271C-143.401 149.482 -142.487 148.725 -141.574 147.968L-141.574 147.968L-141.574 147.968L-141.574 147.968L-141.574 147.967C-141.316 147.754 -141.059 147.54 -140.802 147.326C-140.711 147.145 -140.594 146.963 -140.413 146.795C-135.89 142.588 -134.191 135.581 -132.659 129.261L-132.659 129.261L-132.658 129.26C-132.24 127.532 -131.833 125.856 -131.385 124.303C-130.95 122.785 -130.513 121.267 -130.075 119.75C-129.637 118.232 -129.199 116.715 -128.765 115.197C-128.684 114.021 -128.608 112.844 -128.533 111.666L-128.533 111.665L-128.533 111.665L-128.533 111.665L-128.533 111.665C-128.102 104.925 -127.67 98.1726 -126.158 91.758C-121.89 73.6762 -111.837 57.3714 -99.6315 43.3626C-97.2059 40.5608 -94.6635 37.8758 -92.0693 35.2296C-91.9655 35.1259 -91.865 35.0189 -91.7645 34.9119C-91.664 34.8048 -91.5634 34.6978 -91.4597 34.5941C-82.6782 25.6958 -73.1314 17.524 -63.4938 9.49486C-62.7021 8.83943 -61.9137 8.184 -61.1252 7.52857C-60.3377 6.87391 -59.5501 6.21925 -58.7594 5.56459C-59.2176 6.06612 -59.6644 6.57917 -60.1112 7.09222C-60.3346 7.34879 -60.558 7.60536 -60.7828 7.86049C-65.4265 13.1268 -69.7589 18.6395 -73.8189 24.3598C-88.5152 45.0618 -99.8001 68.2802 -110.903 91.2262C-113.072 95.7048 -115.563 100.294 -118.09 104.948C-118.556 105.807 -119.023 106.668 -119.49 107.531C-119.502 107.555 -119.515 107.579 -119.528 107.604L-119.559 107.664L-119.575 107.693C-119.604 107.748 -119.633 107.803 -119.659 107.855C-122.513 113.134 -125.327 118.492 -127.688 123.875C-128.09 124.77 -128.466 125.652 -128.83 126.547C-129.057 127.345 -129.287 128.142 -129.517 128.94C-129.747 129.738 -129.978 130.535 -130.205 131.333C-130.432 132.126 -130.651 132.921 -130.87 133.714C-131.599 136.359 -132.323 138.986 -133.331 141.451C-126.209 136.197 -118.66 131.528 -110.89 127.273C-110.754 127.059 -110.625 126.842 -110.495 126.625C-110.365 126.407 -110.235 126.19 -110.099 125.976C-110.177 126.004 -110.255 126.029 -110.332 126.054L-110.333 126.055L-110.333 126.055C-110.429 126.086 -110.522 126.117 -110.613 126.151L-110.086 125.95C-104.781 117.402 -100.047 108.569 -95.8698 99.4499C-95.1305 96.6351 -94.5598 93.7815 -94.0409 90.9149C-93.9546 90.4201 -93.8686 89.9249 -93.7827 89.4296C-93.3909 87.1717 -92.9983 84.9097 -92.5622 82.6652C-92.0952 80.2785 -91.5504 77.8918 -90.9408 75.5311C-86.375 57.7476 -77.9178 40.924 -65.7119 27.2264C-58.6037 19.2621 -50.1984 12.4393 -40.9629 7.12113C-39.3545 6.20018 -37.7331 5.31814 -36.0728 4.48799C-33.738 3.32058 -31.3772 2.20506 -28.9516 1.23222C-25.8645 -3.6478e-05 -22.7254 -1.07664 -19.5216 -1.97165C-17.2905 -2.59427 -15.0336 -3.13906 -12.7636 -3.58008L-13.0037 -3.44971C-19.3968 0.0221486 -25.8084 3.50401 -31.6885 7.79563C-53.8044 23.9188 -66.4772 49.6406 -78.3847 74.2858L-78.4906 74.5047C-81.1664 80.0356 -83.8469 85.5763 -86.8938 90.9149C-88.8265 94.3003 -90.9149 97.595 -93.081 100.825C-96.7519 108.815 -100.851 116.598 -105.365 124.173L-104.055 123.68C-101.46 122.357 -98.8662 121.06 -96.246 119.815C-95.9282 119.665 -95.6104 119.523 -95.2926 119.38C-94.9748 119.237 -94.657 119.095 -94.3393 118.946C-86.1804 111.215 -81.6534 100.332 -77.5546 89.5529C-77.2655 88.7948 -76.9787 88.0367 -76.6923 87.2796L-76.6922 87.2793L-76.6921 87.279L-76.692 87.2787L-76.6917 87.2778C-76.2971 86.2348 -75.9033 85.1937 -75.5051 84.1569C-65.3876 57.6438 -51.1972 31.1437 -27.447 15.6043C-26.7854 15.1633 -26.1239 14.7611 -25.4494 14.359C-18.6266 10.2212 -11.5443 7.47135 -4.29341 5.2014C-1.93265 4.46204 0.454041 3.77457 2.84073 3.10007L4.63074 2.5942C2.59181 3.79433 0.771119 5.02014 -0.537536 5.90122L-0.557723 5.91481C-6.96376 10.2176 -12.3898 15.7787 -17.7851 21.3084C-18.2126 21.7466 -18.64 22.1846 -19.0676 22.6217C-20.099 23.6777 -21.1343 24.7313 -22.1698 25.7852L-22.1708 25.7862L-22.1718 25.7872L-22.1737 25.7892L-22.1765 25.7921L-22.1767 25.7922C-29.8905 33.6429 -37.6223 41.512 -43.9333 50.5097C-48.4894 57.004 -52.2472 63.9942 -56.0069 70.988L-56.007 70.9882C-58.9907 76.5384 -61.9756 82.0909 -65.3617 87.3997C-65.6407 87.8301 -65.9295 88.2557 -66.219 88.6824L-66.2193 88.6827C-66.4008 88.9502 -66.5826 89.2182 -66.7625 89.488C-73.1573 99.0867 -80.8752 107.803 -89.6178 115.327C-90.876 116.416 -92.1601 117.48 -93.4572 118.517C-81.2331 112.862 -68.6969 107.871 -56.1634 102.88C-47.1651 99.2971 -38.1681 95.7148 -29.2889 91.8877C-29.8855 92.1082 -30.4692 92.2768 -31.027 92.3806H-31.0789C-28.9646 89.4102 -27.1616 86.349 -25.4753 83.21C-24.0485 80.5509 -22.7254 77.827 -21.4154 75.0382C-16.9014 65.3876 -11.6481 55.763 -3.54109 48.8494C0.94693 45.0229 6.16133 42.1433 11.3757 39.3934C22.7774 33.3748 34.4385 27.7842 46.3979 22.9849C48.0971 22.3104 49.7963 21.6359 51.5085 20.9873C53.3764 20.2869 55.2313 19.5994 57.1121 18.9379C61.1591 17.511 65.232 16.162 69.3439 14.9687C59.836 19.0805 51.8717 25.9034 44.1539 32.9078C43.4275 33.5693 42.6979 34.2341 41.9682 34.8989L41.874 34.9847L41.8085 35.0445C41.1321 35.6607 40.456 36.2767 39.7826 36.89C28.4588 47.215 16.7717 57.1379 4.74748 66.6458C0.804246 69.7589 -3.19086 72.8201 -7.21191 75.8553C-7.73997 76.2522 -8.26804 76.6501 -8.79634 77.0481L-8.79776 77.0491C-10.2545 78.1466 -11.7131 79.2455 -13.1787 80.3304C-14.4266 81.2515 -15.8523 82.4517 -17.3812 83.7389C-20.5246 86.3853 -24.1044 89.399 -27.4729 91.1094C-12.7636 84.7017 1.60846 77.5675 15.0466 68.5396C15.4876 68.2542 15.9416 68.2153 16.3567 68.3321C18.6007 66.5161 20.5464 64.9725 20.9485 64.6612C23.6615 62.5331 26.3508 60.3757 29.0398 58.2185L29.0408 58.2177C34.7595 53.63 40.4777 49.0428 46.4238 44.7375C58.2535 36.1765 71.1988 28.6792 85.3373 25.2289C86.3621 24.9824 87.3868 24.7489 88.4245 24.5414C90.9946 24.0317 93.6007 23.6587 96.2058 23.2857C101.424 22.5388 106.638 21.7924 111.552 19.9496C116.04 18.2634 120.139 15.6951 123.965 12.8025C124.471 12.4134 124.977 12.0242 125.483 11.6221C125.225 11.85 124.962 12.069 124.698 12.2896L124.697 12.29C124.51 12.4459 124.322 12.6025 124.134 12.7636C122.162 14.4628 120.178 16.162 118.167 17.8223C114.38 20.9614 110.514 24.0355 106.623 27.0578C92.6142 37.9017 77.9697 47.9284 62.7675 57.0212C57.0472 60.4456 51.2361 63.7403 44.984 66.0362C39.6269 67.9948 33.9975 69.2011 28.3809 70.2388C27.6635 70.3699 24.8839 71.1504 21.6054 72.0711C18.7196 72.8814 15.4473 73.8003 12.8545 74.4804C11.9854 74.7139 11.1942 74.9214 10.5197 75.0771C4.43619 78.8257 -1.80296 82.2631 -8.15883 85.454C-7.19482 85.2587 -6.2247 85.097 -5.32278 84.9467L-5.3226 84.9467L-5.32196 84.9466C-4.36745 84.7876 -3.48932 84.6412 -2.77579 84.4812C0.166047 83.8212 3.11762 83.2149 6.06996 82.6085C7.93411 82.2255 9.79858 81.8425 11.6611 81.4459C42.2471 74.9084 72.0419 64.6612 100.176 50.9896C93.574 55.6722 86.842 60.1732 80.0062 64.5056C73.9097 68.371 67.7225 72.1196 61.4444 75.6997C60.9003 76.0147 60.3491 76.3227 59.8013 76.6289L59.3942 76.8565L59.2134 76.9579C55.2183 79.2019 51.1324 81.3032 46.813 82.8338C34.8751 87.0491 21.9212 87.1036 9.03395 87.1579C1.37929 87.1901 -6.25186 87.2222 -13.6327 88.1261C-25.4105 93.7555 -37.5126 98.7105 -49.6665 103.575C-46.2292 102.602 -42.8048 101.694 -39.3545 100.916C-33.8028 99.6704 -28.1604 98.7365 -22.1028 98.3084C-17.5905 97.9933 -13.0686 97.7988 -8.54666 97.6042L-8.54597 97.6042C-0.225173 97.2463 8.0957 96.8884 16.3567 95.779C32.3112 93.6388 47.7209 88.6709 63.0399 83.7159C68.5267 81.9388 74.0784 80.1358 79.0074 77.1265C76.05 80.6936 72.7553 83.9104 69.2271 86.816C63.5328 91.4986 57.164 95.351 50.393 98.503C38.0185 104.275 24.2821 107.687 10.7142 109.425C3.54117 110.346 -3.72267 110.865 -10.9217 110.242C-16.2653 109.769 -21.5157 108.672 -26.7677 107.574C-27.7116 107.377 -28.6556 107.18 -29.6002 106.986C-31.6496 106.558 -33.6991 106.156 -35.7615 105.806C-38.0963 105.404 -40.6905 105.002 -43.3626 104.729C-46.3719 104.431 -49.459 104.327 -52.3905 104.625L-53.5872 105.102L-53.5874 105.102C-64.4221 109.418 -75.262 113.736 -85.921 118.44C-78.9944 117.324 -71.9121 117.013 -64.7909 117.169C-56.7495 117.337 -48.6523 118.073 -40.6646 118.8L-40.6552 118.8L-40.6458 118.801C-40.0201 118.858 -39.395 118.915 -38.7708 118.971C-36.1636 119.205 -33.5434 119.438 -30.9232 119.646C-20.6241 120.489 -10.2991 121.073 -0.0129389 120.826C5.48683 120.697 10.9736 120.359 16.4345 119.659C31.3897 117.739 46.2929 113.183 58.8605 104.997C60.0298 102.288 61.2612 99.6146 62.5356 96.9861C61.3319 99.4737 60.292 102.031 59.4023 104.641C62.0089 102.912 64.5125 101.025 66.8923 98.9699C64.6405 101.66 61.9426 103.877 59.0164 105.805C57.3543 110.966 56.2652 116.32 55.6463 121.735C55.1794 125.743 54.9588 129.803 54.9978 133.837C55.1145 146.535 57.4363 159.117 60.4846 171.453C61.1892 174.307 61.9349 177.162 62.6819 180.022C65.785 191.905 68.911 203.875 69.2142 216.191C69.2531 217.955 68.0857 226.542 68.0857 226.542C68.0857 226.542 65.7768 218.538 65.5822 216.722C65.5563 216.489 65.5206 216.259 65.485 216.029C65.4493 215.798 65.4136 215.568 65.3877 215.334C64.4926 207.993 62.8453 200.742 60.4067 193.763C59.1906 190.284 57.7848 186.869 56.3793 183.453C54.1271 177.981 51.8756 172.51 50.406 166.783H50.4449C48.6078 159.656 48.0378 152.4 48.4318 145.141C44.5601 146.992 40.6625 148.786 36.739 150.526L36.7407 150.973C36.7818 162.071 36.8231 173.202 38.6805 184.139C40.0127 191.965 42.2662 199.586 44.5208 207.21L44.5209 207.21C46.3056 213.245 48.091 219.282 49.4206 225.426C49.5612 226.069 49.6785 226.704 49.7966 227.344L49.7971 227.346L49.7979 227.35C49.8318 227.534 49.8659 227.718 49.9005 227.903C52.1056 239.227 52.7542 250.849 51.8332 262.342C51.6906 264.002 51.5349 265.663 51.3403 267.31C56.0446 254.712 61.4323 242.36 66.8186 230.012L66.8189 230.011C70.7 221.113 74.5804 212.217 78.2036 203.232C77.9312 203.803 77.6458 204.335 77.3086 204.802C77.2956 204.815 77.2827 204.828 77.2827 204.841C76.699 201.235 75.8429 197.784 74.8181 194.373C73.962 191.493 72.9892 188.627 71.9515 185.721C68.3585 175.695 65.3233 165.149 66.2183 154.539C66.7112 148.663 68.3974 142.955 70.1615 137.326C74.0269 125.016 78.3723 112.849 83.4959 101.02C84.2222 99.3333 84.9616 97.66 85.7269 95.9997C86.557 94.1967 87.4002 92.3937 88.2693 90.6037C90.1371 86.7513 92.0828 82.9248 94.1581 79.1761C90.2928 88.7877 89.4366 99.2425 88.8789 109.645C88.8284 110.605 88.7809 111.567 88.7336 112.528L88.7332 112.537C88.6834 113.548 88.6337 114.557 88.5805 115.56C87.7893 130.866 86.4792 146.146 84.6243 161.361C84.0147 166.355 83.3402 171.336 82.6138 176.317C82.2636 178.782 81.9134 181.246 81.5242 183.698C81.2871 185.227 81.1204 187.078 80.9417 189.063C80.573 193.158 80.1528 197.826 78.9559 201.416C84.8967 186.512 90.0722 171.336 93.2761 155.46C93.3929 154.941 93.6912 154.59 94.0674 154.383C94.3916 151.516 94.69 149.052 94.7548 148.546C95.1892 145.1 95.5846 141.649 95.98 138.198L95.9801 138.197C96.8125 130.931 97.6448 123.666 98.8408 116.455C101.214 102.057 105.132 87.6203 112.759 75.2199C113.317 74.3249 113.874 73.4428 114.471 72.5608C115.942 70.3844 117.535 68.2815 119.126 66.1801L119.126 66.1799C122.305 61.9817 125.48 57.7891 127.676 53.0262C129.673 48.6679 130.789 43.9594 131.463 39.2119C131.554 38.5779 131.631 37.9438 131.709 37.3097L131.71 37.3052C131.684 37.5972 131.658 37.8926 131.632 38.1879L131.631 38.1989C131.605 38.4901 131.58 38.7813 131.554 39.0693C131.346 41.6765 131.139 44.2707 130.88 46.8649C130.4 51.768 129.829 56.6582 129.18 61.5483C126.871 79.1112 123.512 96.5315 119.115 113.692C117.467 120.139 115.651 126.586 112.824 132.604C110.385 137.793 107.233 142.592 103.977 147.288C103.569 147.88 102.178 150.33 100.526 153.239C99.031 155.873 97.322 158.883 95.9352 161.232C95.5892 161.825 95.2582 162.365 94.9596 162.853L94.9424 162.881C94.8553 163.023 94.771 163.161 94.69 163.294C93.0037 170.247 90.9932 177.069 88.7232 183.814C89.2766 182.988 89.8579 182.183 90.3971 181.436L90.398 181.435C90.958 180.66 91.4724 179.947 91.8622 179.339C93.4962 176.784 95.1797 174.259 96.8638 171.732L96.8646 171.731C97.9074 170.167 98.9505 168.602 99.9822 167.03C117.117 140.867 131.074 112.616 141.438 83.1064C140.037 91.0836 138.416 99.022 136.613 106.908C134.991 113.952 133.227 120.956 131.295 127.922C131.139 128.499 130.97 129.083 130.802 129.664C130.732 129.905 130.663 130.146 130.594 130.386C129.323 134.796 127.909 139.168 125.912 143.293C120.393 154.696 111.222 163.858 102.101 172.969C96.6874 178.377 91.2912 183.768 86.6868 189.6C82.2896 201.883 77.1789 213.921 71.9645 225.932C73.7286 222.819 75.5186 219.758 77.4254 216.787C80.4865 211.988 83.8331 207.344 87.8412 202.791C90.8194 199.403 93.8871 196.094 96.9545 192.784L96.9558 192.783C102.625 186.666 108.294 180.551 113.394 173.943C123.227 161.206 130.685 146.821 138.079 132.527L138.141 132.404C140.767 127.308 143.421 122.157 144.785 116.598C145.187 121.229 145.122 125.82 144.655 130.373C143.916 137.715 142.1 144.927 139.505 151.931C134.771 164.747 127.416 176.836 118.998 187.615C114.549 193.322 109.762 198.809 104.198 203.427C100.082 206.851 95.5942 209.756 91.0967 212.667L91.0948 212.668C90.2779 213.197 89.4608 213.726 88.6454 214.258C86.8943 215.399 85.1562 216.567 83.444 217.76C81.5113 219.122 79.384 220.653 77.2956 222.339C74.9478 224.233 72.6909 226.334 70.8101 228.617L69.9519 230.589C65.4113 241.021 60.8714 251.451 56.7104 262.031C60.8482 256.362 65.6605 251.161 70.823 246.258C76.7291 240.644 83.0811 235.407 89.353 230.237L89.3532 230.237C89.7619 229.9 90.1703 229.563 90.5781 229.227C92.6016 227.553 94.6251 225.867 96.6357 224.181C104.535 217.54 112.292 210.691 119.426 203.271C123.24 199.302 126.91 195.203 130.296 190.858C141.646 176.33 150.155 159.04 151.594 140.659C152.191 148.014 149.947 155.265 147.457 162.205C144.862 169.455 141.944 176.577 138.766 183.594C138.117 185.047 137.456 186.5 136.781 187.939C133.811 194.217 130.633 200.392 127.222 206.449C125.03 210.354 122.747 214.219 120.373 218.019C117.934 221.911 115.366 225.776 112.577 229.473C106.429 237.619 99.2688 244.87 90.2798 249.513C86.8294 251.29 83.1716 252.652 79.4878 253.963C79.0686 254.112 78.6491 254.26 78.2297 254.409C73.8723 255.954 69.5148 257.499 65.4919 259.605C64.0391 260.37 62.6382 261.226 61.2762 262.173C61.1348 262.272 60.9917 262.368 60.8481 262.464C60.5966 262.632 60.3436 262.801 60.0959 262.99C59.162 263.691 58.2929 264.469 57.4498 265.273C56.2694 266.402 55.1668 267.621 54.1162 268.892C50.4713 278.725 47.2674 288.699 44.8548 298.908C44.4397 300.685 44.0376 302.462 43.6744 304.252C43.5838 304.696 43.5262 305.235 43.4659 305.8C43.3447 306.934 43.2123 308.172 42.7794 308.96C46.4632 302.228 51.1587 296.184 56.8012 290.891C58.3577 289.14 59.9143 287.428 61.3671 285.885C64.1948 282.849 66.5815 280.437 67.6062 279.477C72.2628 275.118 77.2048 271.059 82.2636 267.18C90.1784 261.105 98.4367 255.491 106.687 249.881L106.688 249.881C109.43 248.017 112.172 246.153 114.899 244.273C138.935 227.709 163.139 208.174 172.984 180.688C170.39 188.29 167.562 195.813 164.566 203.258C162.27 208.966 159.87 214.634 157.341 220.251L157.107 220.756C150.648 234.999 142.8 249.526 129.492 257.698C124.782 260.582 119.598 262.542 114.424 264.498L114.424 264.498C113.313 264.918 112.203 265.338 111.098 265.766C99.4893 270.28 88.3082 275.923 77.7626 282.551C72.4963 285.872 67.3727 289.439 62.4437 293.239C60.7645 294.548 55.865 298.184 51.8397 301.171L51.2366 301.619C47.0988 307.028 43.7652 312.994 41.2877 319.597C41.2599 319.834 41.2317 320.071 41.2034 320.308L41.201 320.329C41.0848 321.304 40.9686 322.279 40.8856 323.255C40.7768 324.582 40.7136 325.9 40.6501 327.224L40.649 327.248C40.6372 327.495 40.6253 327.742 40.6132 327.989C41.5341 325.862 42.6367 323.812 43.9079 321.854C44.4008 316.133 56.4639 308.441 60.0051 306.444C61.3152 305.717 62.6512 305.03 64.0002 304.381C68.7789 302.069 73.7773 300.212 78.7773 298.354C81.744 297.252 84.7113 296.149 87.6337 294.951C117.947 282.538 143.656 259.216 158.949 230.264C159.922 233.818 160.194 237.502 159.922 241.173C159.507 246.854 157.782 252.497 155.187 257.582C154.292 259.32 153.294 260.98 152.243 262.614C148.209 268.853 143.072 274.392 137.715 279.568C131.904 285.184 125.717 290.528 118.635 294.42C109.191 299.607 98.6106 301.982 88.0325 304.357C84.0086 305.261 79.985 306.164 76.0245 307.222C65.7773 309.959 56.4899 314.123 48.4607 320.751C45.0623 325.161 42.7015 330.155 41.3655 335.577C41.8065 335.045 42.2735 334.539 42.7664 334.047C47.8252 328.988 55.3484 325.654 61.6265 323.734C67.1487 322.044 72.8397 321.019 78.5306 319.994C84.1084 318.989 89.6862 317.985 95.105 316.354C95.1569 316.328 95.2218 316.315 95.2737 316.302C109.036 312.125 121.449 303.759 130.659 292.733C133.642 289.153 136.301 285.301 138.545 281.215C137.547 283.342 136.509 285.47 135.458 287.584C133.409 291.709 131.256 295.82 128.921 299.79C124.751 306.87 120.008 313.526 114.294 319.138C112.448 325.476 110.943 331.892 109.723 338.366C105.041 363.322 104.496 389.135 104.016 414.623C103.93 419.524 103.593 424.639 103.251 429.835L103.251 429.836L103.249 429.873L103.246 429.921C103.178 430.954 103.11 431.991 103.043 433.029C103.039 433.066 103.035 433.103 103.032 433.141C103.026 433.194 103.022 433.248 103.02 433.301C103.018 433.332 103.017 433.363 103.017 433.393C102.641 439.385 102.33 445.43 102.434 451.306C102.46 452.279 102.485 453.251 102.524 454.211C102.647 455.027 102.774 455.847 102.9 456.666C103.027 457.488 103.153 458.309 103.277 459.127C103.408 460.001 103.549 460.871 103.69 461.738L103.69 461.739L103.69 461.74C104.121 464.389 104.547 467.012 104.665 469.621C108.945 461.864 113.835 454.471 119.115 447.35C119.149 447.09 119.179 446.826 119.21 446.561C119.238 446.323 119.265 446.084 119.296 445.845C119.166 445.975 119.024 446.104 118.894 446.234L119.296 445.819C120.515 435.831 121.125 425.83 121.112 415.804C120.606 412.95 119.945 410.122 119.205 407.295C118.979 406.421 118.748 405.548 118.517 404.675L118.516 404.673C118.034 402.848 117.551 401.021 117.104 399.188C116.52 396.814 116.027 394.427 115.586 392.028C112.292 373.959 112.94 355.138 118.297 337.588C121.41 327.379 126.197 317.677 132.358 308.973C133.435 307.456 134.55 305.99 135.705 304.537C137.339 302.488 139.025 300.49 140.815 298.596C143.098 296.184 145.511 293.888 148.04 291.735C149.804 290.23 151.62 288.79 153.501 287.441C149.078 293.343 144.655 299.258 141.062 305.691C127.714 329.597 126.975 358.251 126.469 385.62L126.469 385.632C126.352 391.854 126.235 398.089 125.691 404.285C125.354 408.164 124.835 412.016 124.225 415.869C124.238 424.663 123.771 433.445 122.837 442.213L123.823 441.214C125.613 438.931 127.429 436.661 129.297 434.443C129.751 433.911 130.205 433.393 130.659 432.861C134.836 422.432 134.382 410.654 133.603 399.149C133.534 398.113 133.46 397.08 133.387 396.051C133.324 395.161 133.261 394.274 133.201 393.39C131.307 365.073 133.11 335.071 148.183 311.023C148.598 310.348 149.039 309.7 149.48 309.051C153.942 302.449 159.221 296.988 164.864 291.89C166.706 290.23 168.574 288.608 170.467 287C170.947 286.598 171.414 286.196 171.881 285.794C170.519 287.752 169.378 289.633 168.561 290.982C164.505 297.637 161.881 305.041 159.275 312.398L159.275 312.398L159.003 313.164C158.916 313.41 158.829 313.656 158.741 313.902C158.24 315.314 157.733 316.726 157.226 318.138L157.223 318.148L157.222 318.149C153.513 328.484 149.795 338.845 147.833 349.638C146.417 357.431 145.93 365.34 145.444 373.254C145.056 379.554 144.668 385.856 143.812 392.105C143.742 392.603 143.658 393.101 143.574 393.599C143.517 393.931 143.461 394.264 143.409 394.596C141.619 405.985 138.26 417.127 133.461 427.62C132.773 429.138 132.06 430.63 131.307 432.121C140.033 421.896 149.315 412.135 158.593 402.377L158.594 402.376L158.595 402.375L158.597 402.373L158.598 402.372C165.29 395.335 171.98 388.299 178.458 381.093C178.004 381.534 177.55 381.936 177.083 382.26C177.08 382.263 177.078 382.266 177.075 382.269L177.07 382.276C177.061 382.288 177.052 382.299 177.044 382.299C177.731 378.719 178.094 375.178 178.302 371.624C178.484 368.615 178.561 365.592 178.574 362.505C178.639 351.843 179.392 340.908 183.854 331.232C186.318 325.875 189.859 321.088 193.439 316.406C201.274 306.158 209.523 296.197 218.383 286.844C219.641 285.508 220.912 284.198 222.196 282.888C223.584 281.474 224.998 280.073 226.425 278.686C229.499 275.702 232.625 272.784 235.868 269.969C228.941 277.674 224.557 287.208 220.484 296.793C219.707 298.607 218.943 300.42 218.178 302.234L218.175 302.241C212.196 316.354 205.736 330.259 198.796 343.931C196.526 348.419 194.179 352.868 191.792 357.304C190.625 359.496 189.457 361.688 188.251 363.867C187.494 365.236 186.693 366.939 185.834 368.765C184.089 372.475 182.106 376.693 179.768 379.64C190.443 367.668 200.509 355.176 208.94 341.349C209.212 340.895 209.614 340.675 210.042 340.61C211.327 338.016 212.442 335.811 212.676 335.357C214.26 332.272 215.809 329.171 217.358 326.071L217.361 326.064C220.63 319.52 223.898 312.979 227.489 306.599C234.649 293.875 243.262 281.656 254.663 272.602C255.48 271.941 256.323 271.305 257.18 270.682C259.301 269.144 261.511 267.717 263.721 266.291C268.145 263.434 272.566 260.579 276.26 256.842C279.633 253.431 282.292 249.384 284.549 245.155C284.86 244.584 285.158 244.014 285.444 243.443C285.297 243.767 285.146 244.087 284.995 244.405L284.994 244.407C284.892 244.623 284.791 244.837 284.691 245.051L284.688 245.059L284.687 245.06L284.687 245.062L284.686 245.063C283.598 247.433 282.51 249.803 281.384 252.147C279.244 256.583 277.025 260.993 274.755 265.364C266.571 281.085 257.465 296.313 247.464 310.932C243.715 316.432 239.811 321.867 235.09 326.562C231.043 330.596 226.438 334.034 221.768 337.328C221.173 337.75 218.965 339.63 216.363 341.846L216.362 341.847C214.086 343.785 211.509 345.979 209.446 347.679L209.324 347.779C208.671 348.31 208.078 348.794 207.565 349.197C203.609 355.151 199.38 360.871 194.944 366.435C195.746 365.85 196.566 365.293 197.327 364.776L197.329 364.775L197.33 364.774L197.333 364.772C198.121 364.236 198.846 363.744 199.419 363.309C201.811 361.481 204.238 359.697 206.665 357.912L206.669 357.909C208.202 356.782 209.736 355.654 211.262 354.515C236.309 335.785 259.086 314.019 278.919 289.828C274.872 296.845 270.644 303.746 266.246 310.543C262.316 316.613 258.269 322.606 254.067 328.482C253.574 329.182 253.068 329.87 252.562 330.557C249.864 334.254 247.036 337.886 243.754 341.077C234.667 349.912 222.911 355.389 211.22 360.835C204.289 364.064 197.381 367.282 191.066 371.183C182.725 381.223 173.801 390.795 164.799 400.29C167.51 397.968 170.247 395.698 173.049 393.558C177.576 390.108 182.31 386.891 187.628 383.973C191.607 381.791 195.645 379.716 199.684 377.641L199.687 377.64L199.689 377.638L199.691 377.637L199.692 377.637C207.08 373.841 214.47 370.045 221.496 365.592C235.09 356.979 247.01 346.019 258.853 335.11C263.107 331.193 267.388 327.237 270.605 322.437C269.411 326.912 267.777 331.206 265.779 335.331C262.576 341.972 258.399 348.133 253.574 353.827C244.74 364.243 233.702 373.09 222.106 380.341C215.97 384.18 209.601 387.695 202.791 390.134C197.759 391.943 192.541 393.14 187.325 394.337L187.319 394.339L187.312 394.34L187.305 394.342C186.357 394.559 185.41 394.777 184.463 394.998C182.427 395.465 180.403 395.958 178.38 396.503C176.097 397.125 173.567 397.839 171.038 398.708C168.184 399.694 165.344 400.887 162.801 402.392L161.405 403.861C153.542 412.139 145.674 420.421 138.13 428.969C143.954 425.052 150.258 421.809 156.783 418.969C164.19 415.742 171.891 413.011 179.496 410.314L179.497 410.313L180.661 409.9L181.169 409.72C183.633 408.838 186.111 407.943 188.575 407.048C198.265 403.494 207.889 399.706 217.138 395.18C222.08 392.754 226.918 390.147 231.587 387.228C247.218 377.448 261.123 364.114 268.763 347.329C266.83 354.437 262.225 360.495 257.517 366.163C252.588 372.078 247.412 377.785 242.029 383.285C240.927 384.426 239.811 385.568 238.683 386.683C233.754 391.574 228.643 396.282 223.377 400.809C219.978 403.728 216.528 406.581 212.987 409.344C209.368 412.159 205.632 414.922 201.754 417.438C193.206 422.99 183.983 427.361 173.957 428.645C170.117 429.138 166.2 429.164 162.296 429.138L161.852 429.135L161.105 429.128H161.105H161.104H161.104C156.43 429.088 151.765 429.047 147.21 429.657C145.589 429.877 143.967 430.215 142.372 430.63C142.274 430.658 142.175 430.684 142.075 430.709C141.973 430.735 141.871 430.76 141.768 430.785L141.765 430.785L141.765 430.785C141.503 430.849 141.239 430.913 140.984 430.993C139.868 431.343 138.779 431.771 137.715 432.238C136.21 432.887 134.758 433.665 133.344 434.495C126.56 442.485 120.126 450.761 114.38 459.53C113.381 461.047 112.408 462.591 111.449 464.147C111.209 464.534 110.969 465.024 110.716 465.537C110.216 466.554 109.669 467.664 108.997 468.259C114.756 463.187 121.229 459.127 128.35 456.079C130.412 454.977 132.462 453.9 134.356 452.94C138.052 451.059 141.127 449.594 142.411 449.049C148.274 446.558 154.305 444.431 160.389 442.511C169.881 439.522 179.525 437.077 189.165 434.634L189.167 434.633L189.17 434.633L189.172 434.632C192.413 433.811 195.653 432.989 198.887 432.147C227.138 424.793 256.557 414.714 275.21 392.248C270.177 398.5 264.949 404.597 259.579 410.576C255.467 415.155 251.278 419.669 246.984 424.079L246.595 424.468C235.66 435.637 223.312 446.61 208.019 449.736C202.633 450.843 197.107 450.911 191.592 450.978C190.387 450.993 189.181 451.008 187.978 451.033C175.526 451.306 163.1 452.785 150.92 455.405C144.823 456.715 138.805 458.323 132.864 460.204C130.724 460.879 124.381 462.772 119.465 464.238C113.731 467.896 108.543 472.371 103.964 477.728C103.796 478.068 103.627 478.405 103.459 478.741C103.079 479.498 102.702 480.251 102.343 481.023C101.902 481.983 101.495 482.954 101.089 483.925C101.036 484.052 100.983 484.178 100.93 484.304C100.882 484.419 100.834 484.534 100.786 484.649C100.683 484.893 100.579 485.137 100.475 485.381C102.083 483.695 103.821 482.151 105.676 480.737C108.102 475.536 122.072 472.423 126.08 471.761C127.559 471.528 129.05 471.346 130.542 471.191C135.831 470.653 141.166 470.617 146.505 470.581C149.664 470.559 152.825 470.538 155.979 470.412C188.705 469.115 220.834 456.001 245.116 434.015C244.818 437.686 243.806 441.24 242.302 444.6C239.967 449.788 236.413 454.497 232.236 458.388C230.809 459.711 229.292 460.943 227.748 462.111C221.82 466.586 215.101 470.036 208.291 473.071C200.911 476.366 193.271 479.272 185.28 480.504C174.61 482.151 163.843 480.766 153.075 479.382C149 478.858 144.925 478.334 140.854 477.975C130.296 477.041 120.126 477.78 110.32 481.269C105.612 484.253 101.681 488.144 98.5811 492.775C99.1778 492.437 99.7874 492.113 100.423 491.815C106.896 488.792 115.106 488.235 121.67 488.572C127.432 488.873 133.128 489.855 138.825 490.838C144.413 491.801 150.002 492.765 155.654 493.086C155.719 493.099 155.771 493.099 155.836 493.099C170.195 493.89 184.723 490.271 197.149 483.059C201.183 480.711 204.984 478 208.499 474.926C206.839 476.587 205.139 478.221 203.427 479.855C200.081 483.033 196.656 486.159 193.102 489.091C183.179 497.25 172.296 503.982 159.831 506.498C142.514 510 124.679 504.864 108.102 498.741C104.237 497.315 100.527 496.407 96.5965 496.043C96.482 496.262 96.3606 496.475 96.239 496.689C96.1798 496.793 96.1206 496.897 96.0621 497.002C96.0387 497.044 96.0154 497.086 95.9922 497.128C95.9097 497.279 95.8293 497.431 95.7534 497.587C90.2925 513.425 86.7125 529.911 83.1714 546.268L83.1195 546.333C82.7044 548.278 79.6562 547.669 80.0842 545.723C83.5735 529.613 87.1017 513.386 92.3809 497.756C92.368 497.522 92.4069 497.289 92.5236 497.029C92.5615 496.95 92.5993 496.873 92.6372 496.796C92.6559 496.759 92.6746 496.721 92.6932 496.684L92.7256 496.62L92.8094 496.455L92.8887 496.298L92.9234 496.229L92.9516 496.173C93.0628 495.847 93.1814 495.528 93.2994 495.21L93.3 495.208C93.4022 494.934 93.504 494.66 93.6002 494.383C93.6132 493.916 93.6132 493.462 93.6132 492.995C93.5742 490.388 93.1592 487.82 92.5106 485.29C92.4549 485.095 92.4039 484.898 92.3526 484.699L92.3515 484.695L92.3505 484.691C92.3239 484.588 92.2972 484.484 92.2696 484.38C92.2513 484.311 92.2326 484.242 92.2133 484.173C92.2054 484.145 92.1974 484.116 92.1893 484.088C92.1789 484.052 92.1682 484.015 92.1573 483.978C92.1498 483.953 92.1422 483.928 92.1345 483.902C91.2005 480.75 89.9034 477.689 88.3987 474.732C87.2703 472.527 86.0769 470.373 84.8446 468.22C82.9284 464.862 80.9154 461.554 78.9027 458.248L78.9026 458.247C74.5801 451.146 70.2598 444.047 66.9055 436.454C57.8646 415.933 56.9437 392.196 63.3904 370.755C65.0507 365.216 67.2168 359.846 69.85 354.71C72.7166 349.106 76.141 343.801 80.1361 338.911C75.9724 344.125 75.6351 351.337 75.5573 358.017C75.5184 360.858 75.5184 363.712 75.5184 366.565C75.5443 379.147 76.0372 391.768 77.6716 404.182C79.0076 414.273 81.083 424.222 84.2999 433.885C85.4543 437.323 86.7514 440.721 88.0615 444.12C88.3319 444.818 88.6033 445.516 88.8746 446.214C91.5709 453.15 94.2627 460.075 95.948 467.299C96.5965 470.114 97.1284 473.175 97.4267 476.327C97.6602 478.908 97.738 481.542 97.5953 484.136C97.7141 483.859 97.8254 483.579 97.9369 483.299L97.9374 483.298C98.0815 482.936 98.2258 482.574 98.3865 482.216C98.9479 480.953 99.5409 479.722 100.137 478.484L100.138 478.481L100.332 478.078C100.332 477.871 100.371 477.65 100.462 477.43C102.81 471.703 101.414 464.611 100.157 458.221C99.8162 456.49 99.4858 454.812 99.2426 453.226C98.9858 451.559 98.7326 449.889 98.4792 448.218L98.4765 448.2C98.2574 446.755 98.038 445.307 97.8158 443.86C97.4119 442.799 97.0023 441.738 96.5924 440.676L96.5902 440.671L96.588 440.665L96.588 440.665L96.5879 440.664L96.5878 440.664C94.1436 434.332 91.6915 427.98 90.3704 421.485C86.6736 403.274 88.9825 384.258 94.2098 366.423C95.2605 362.868 96.4409 359.366 97.6861 355.877C97.7031 355.826 97.7201 355.775 97.7371 355.723L97.7404 355.713L97.7425 355.707C97.7784 355.598 97.8149 355.488 97.8525 355.378C97.8906 355.266 97.93 355.156 97.9715 355.047C102.226 343.282 107.479 331.867 112.875 320.543L112.92 320.45C110.07 323.093 106.983 325.478 103.614 327.535C88.5416 336.758 70.0188 338.029 52.3521 337.938C48.2273 337.925 44.4397 338.34 40.6132 339.339C40.5847 339.518 40.5537 339.698 40.5225 339.879C40.4543 340.276 40.3853 340.676 40.3408 341.077C40.6252 357.781 42.8943 374.447 45.1441 390.971L45.1661 391.133V391.146C45.4384 393.117 42.3773 393.597 42.1049 391.613L42.0693 391.351C39.8628 375.106 37.6408 358.746 37.2666 342.335C37.1758 342.115 37.1239 341.881 37.1499 341.596C37.1758 341.271 37.2147 340.96 37.2537 340.649V338.742C37.2299 338.675 37.2064 338.607 37.1831 338.54C37.1608 338.475 37.1386 338.411 37.1164 338.347C37.0103 338.038 36.9049 337.732 36.7867 337.432C35.8657 334.993 34.5946 332.723 33.1159 330.57C33.0366 330.457 32.9574 330.343 32.8778 330.228C32.6839 329.948 32.488 329.666 32.2857 329.39C30.3271 326.744 28.0571 324.318 25.6315 322.048C23.8285 320.349 21.9606 318.728 20.0669 317.132C17.1253 314.638 14.1109 312.225 11.0974 309.813L11.097 309.813C4.59605 304.609 -1.90065 299.408 -7.65253 293.408C-23.179 277.22 -32.1551 255.234 -33.4262 232.871C-33.7635 227.112 -33.5559 221.314 -32.8425 215.594C-32.0513 209.342 -30.6504 203.18 -28.575 197.227C-30.7023 203.557 -28.562 210.444 -26.344 216.748C-25.41 219.433 -24.4502 222.118 -23.4644 224.79C-19.145 236.594 -14.3716 248.294 -8.58646 259.397C-3.8909 268.425 1.4662 277.064 7.79613 285.041C10.0531 287.895 12.4268 290.645 14.8265 293.382C15.3486 293.98 15.8717 294.576 16.3948 295.173C21.2643 300.728 26.1292 306.278 30.1584 312.462C31.7279 314.888 33.2845 317.586 34.6335 320.44C35.736 322.775 36.7088 325.226 37.4612 327.717C37.4779 327.422 37.4874 327.124 37.497 326.827V326.826V326.826C37.5097 326.43 37.5224 326.034 37.552 325.641C37.6259 324.551 37.7327 323.474 37.8395 322.397L37.8397 322.395C37.8828 321.96 37.926 321.525 37.9671 321.088C37.8892 320.894 37.8633 320.686 37.8633 320.44C38.1182 314.271 34.3891 308.093 31.0241 302.519L31.024 302.519C30.1086 301.003 29.2202 299.531 28.4462 298.116L23.8934 289.802C23.1302 288.918 22.3613 288.037 21.5922 287.155C17.1454 282.057 12.6881 276.947 9.2489 271.318C-0.440566 255.467 -4.7859 236.815 -5.96628 218.266C-6.19975 214.569 -6.29054 210.859 -6.30351 207.163V206.281C-6.32077 197.959 -5.87276 189.627 -5.21556 181.305C-7.64563 182.624 -10.205 183.718 -12.8155 184.58C-14.6703 185.189 -16.5512 185.669 -18.4449 186.084C-25.7088 187.68 -33.2451 187.991 -40.7035 187.9C-48.7845 187.796 -56.9434 187.239 -64.7131 185.021C-75.0899 182.057 -84.2862 176.296 -93.4849 170.534L-93.4851 170.534L-93.4853 170.534L-93.4855 170.533L-93.4857 170.533C-96.9696 168.351 -100.454 166.168 -104.003 164.137C-113.199 158.871 -122.746 155.291 -133.11 154.357C-138.636 155.096 -143.824 156.977 -148.585 159.896C-147.897 159.831 -147.21 159.792 -146.509 159.792C-139.362 159.766 -131.67 162.684 -125.859 165.745C-120.745 168.434 -115.976 171.711 -111.207 174.99L-111.206 174.99L-111.206 174.99L-111.206 174.99L-111.206 174.99C-106.539 178.197 -101.872 181.405 -96.8816 184.061C-96.8558 184.074 -96.8301 184.09 -96.8043 184.106L-96.8038 184.106C-96.7778 184.122 -96.7519 184.139 -96.726 184.152C-84.0142 190.871 -69.3049 193.659 -54.9977 192.31C-50.354 191.869 -45.7622 191 -41.2872 189.677C-43.4923 190.482 -45.7104 191.26 -47.9544 192.025C-52.3127 193.517 -56.7229 194.918 -61.185 196.098C-73.6113 199.367 -86.3101 200.91 -98.6846 197.992C-115.884 193.919 -129.932 181.791 -142.423 169.3C-145.342 166.381 -148.325 164.02 -151.75 162.036C-151.92 162.164 -152.093 162.288 -152.266 162.413C-152.566 162.63 -152.867 162.848 -153.163 163.086C-164.745 175.187 -174.888 188.663 -184.953 202.034ZM48.4485 144.843C49.2071 131.74 53.0931 118.631 58.3238 106.253C55.292 108.182 52.0386 109.823 48.7976 111.37C41.858 114.691 34.7628 117.7 27.5767 120.45C26.098 121.021 24.6063 121.592 23.1147 122.136C16.5901 124.523 9.97487 126.663 3.29471 128.57C-1.01172 129.789 -5.35706 130.944 -9.71536 131.969C-14.1774 133.006 -18.7303 133.953 -23.3091 134.615C-33.4007 136.08 -43.5961 136.184 -53.2466 133.162C-56.9564 132.008 -60.5105 130.399 -64.0516 128.739C-64.4283 128.562 -64.8048 128.385 -65.1813 128.208L-65.1925 128.203L-65.2039 128.197C-69.4089 126.22 -73.6076 124.245 -77.9696 122.902C-79.5392 122.422 -81.1476 122.046 -82.769 121.76C-82.8801 121.739 -82.9912 121.716 -83.1025 121.694C-83.4589 121.622 -83.8171 121.55 -84.1828 121.501C-85.3502 121.358 -86.5047 121.293 -87.6721 121.267C-89.3064 121.228 -90.9538 121.319 -92.5881 121.488C-102.096 125.898 -111.409 130.736 -120.295 136.288C-121.851 137.261 -123.382 138.247 -124.899 139.258C-125.286 139.513 -125.717 139.861 -126.167 140.226L-126.168 140.226L-126.169 140.227C-127.049 140.939 -128.006 141.712 -128.856 141.969C-121.501 139.777 -113.913 138.791 -106.182 138.999C-103.847 138.856 -101.525 138.74 -99.411 138.662C-95.2732 138.506 -91.8747 138.467 -90.4739 138.506C-84.092 138.688 -77.7362 139.284 -71.4062 140.089C-61.432 141.354 -51.5468 143.19 -41.6664 145.025L-41.6655 145.025L-41.6645 145.025L-41.6635 145.026L-41.6626 145.026C-38.4767 145.618 -35.2913 146.209 -32.1036 146.782C-18.2579 149.263 -3.89709 151.281 10.2138 151.295L10.2347 151.218C10.7276 149.441 11.2594 147.664 11.8561 145.913C12.6992 143.435 13.5943 140.984 14.6319 138.584C15.955 135.536 17.4337 132.552 19.081 129.673C20.2355 127.662 21.4418 125.691 22.7519 123.771C20.6116 130.827 18.4844 137.897 17.304 145.173C16.9813 147.168 16.7319 149.164 16.5505 151.16C19.4784 151.03 22.3905 150.802 25.2796 150.463C25.4424 149.559 25.6201 148.656 25.8131 147.755C25.9817 146.976 26.1633 146.224 26.3579 145.459C28.2906 137.715 31.3907 130.788 34.9448 124.069C36.0098 122.047 37.13 120.058 38.2545 118.061L38.2547 118.061L38.5378 117.558C38.8361 117.013 39.1345 116.468 39.4458 115.936C38.8832 118.101 38.4706 120.15 38.1643 121.671L38.1643 121.671L38.1097 121.942C36.5933 129.512 36.6514 137.294 36.7091 145.03L36.7092 145.035C36.7136 145.635 36.7181 146.234 36.7218 146.834C36.7252 147.379 36.7281 147.925 36.7306 148.47C40.7074 147.534 44.6199 146.339 48.4485 144.843ZM-3.33005 165.539C0.44722 164.605 4.19475 163.441 7.88539 162.159C7.55824 164.239 7.29608 166.329 7.09972 168.426C3.78656 169.411 0.437104 170.269 -2.93947 171.002C-3.09132 169.236 -3.21857 167.467 -3.32014 165.694L-3.33005 165.539ZM2.08841 176.265C3.85632 174.729 5.47166 173.029 6.8808 171.166C6.62209 175.078 6.59256 179.005 6.79735 182.919C7.75722 201.235 13.5942 219.148 22.8686 234.999C24.1009 237.1 25.385 239.175 26.747 241.212C27.8063 242.805 28.9022 244.38 29.9971 245.954L29.9978 245.955C30.4981 246.674 30.9982 247.393 31.4945 248.113C33.1548 250.512 34.7502 252.951 36.203 255.454C39.6403 264.871 42.494 274.483 44.751 284.289L44.5101 284.809C44.5867 284.644 44.675 284.48 44.751 284.315L45.1012 285.794C42.5718 294.29 40.5094 302.916 39.1345 311.658C38.1103 309.178 36.7675 306.791 35.4128 304.384C35.0175 303.681 34.6211 302.976 34.2314 302.267C33.8353 301.54 33.4359 300.813 33.0366 300.085C32.6382 299.36 32.2398 298.634 31.8447 297.909C31.4815 297.014 31.1183 296.119 30.7681 295.211C28.6667 289.724 26.8897 283.939 25.2034 278.18C25.184 278.121 25.1678 278.063 25.1516 278.005C25.1354 277.946 25.1191 277.888 25.0997 277.829C24.7684 276.703 24.4403 275.577 24.1133 274.456L24.1099 274.444C22.6841 269.553 21.2797 264.736 19.7296 260.202C11.467 236.088 3.15247 211.651 -0.972366 186.59C-1.36726 184.199 -1.72179 181.801 -2.03326 179.396C-0.587921 178.44 0.79245 177.396 2.08841 176.265ZM-4.09842 168.768C-4.17995 169.611 -4.26063 170.455 -4.34024 171.299C-31.8717 176.979 -61.1128 174.342 -87.1013 163.592C-90.0019 162.392 -92.8687 161.095 -95.7352 159.799L-95.7357 159.798C-100.612 157.593 -105.487 155.388 -110.527 153.656C-111.941 153.176 -113.368 152.709 -114.821 152.307C-118.738 151.231 -132.721 148.208 -137.105 151.931C-139.388 152.437 -141.606 153.112 -143.759 153.968C-143.468 153.702 -143.177 153.435 -142.886 153.169C-142.013 152.368 -141.139 151.568 -140.244 150.79C-139.684 150.315 -139.109 149.854 -138.535 149.393C-138.152 149.086 -137.769 148.779 -137.391 148.468C-130.996 145.523 -124.406 143.63 -117.674 142.696C-112.59 143.422 -106.039 144.356 -103.821 144.641C-97.6339 145.42 -91.4986 146.483 -85.4151 147.832C-73.2611 150.543 -61.3536 154.409 -49.926 159.364C-48.8121 159.848 -47.7008 160.343 -46.5889 160.838C-41.5632 163.078 -36.5251 165.322 -31.1826 166.576C-22.1391 168.69 -12.8843 167.853 -3.79526 165.653C-3.8974 166.689 -3.99957 167.727 -4.09842 168.768ZM30.9108 225.27C23.5509 203.825 16.0486 181.489 16.174 159.096C18.9588 158.016 21.7317 156.904 24.494 155.765C21.5407 181.011 29.5327 206.811 39.8998 230.277C40.0292 230.568 40.1586 230.86 40.288 231.152C40.3978 231.399 40.5076 231.647 40.6175 231.895C41.1575 233.112 41.6994 234.334 42.2475 235.556C46.9172 246.102 51.3663 257.024 51.0031 268.244C50.7566 268.892 50.5102 269.541 50.2637 270.202C49.2779 272.926 48.344 275.676 47.436 278.439L46.8523 279.71C44.725 271.149 42.1697 262.744 39.1474 254.468C38.4081 250.642 37.5779 246.841 36.5662 243.08C34.9578 237.061 32.9343 231.159 30.9108 225.27ZM-30.8503 62.3929C-28.5951 56.9138 -26.3425 51.4411 -23.3607 46.3329V46.3459C-11.203 25.5356 11.5554 13.3014 34.293 5.28395C26.1851 8.15335 18.754 12.6128 12.0376 18.0039C8.88561 20.5333 5.8763 23.2572 3.06155 26.1498C-5.79776 35.2556 -12.9968 45.8271 -19.5083 56.7358C-21.0301 59.2798 -22.5226 61.8535 -24.0175 64.4313C-30.1677 75.0365 -36.3578 85.7104 -44.7891 94.6635C-45.9954 95.9477 -52.8701 101.227 -52.8701 101.227C-52.8701 101.227 -48.875 93.9242 -47.7335 92.4973C-47.5909 92.3158 -47.4514 92.1277 -47.312 91.9396C-47.1726 91.7515 -47.0331 91.5634 -46.8904 91.3818C-42.3505 85.5318 -38.4202 79.2278 -35.2423 72.5477C-33.6596 69.2179 -32.2544 65.8042 -30.8503 62.3929ZM164.73 354.933C164.483 349.017 164.237 343.106 164.812 337.224L164.838 337.237C167.165 313.26 182.707 292.644 199.99 275.852C193.849 281.835 188.966 288.982 185.125 296.677C183.322 300.296 181.726 304.018 180.377 307.832C176.149 319.804 174.022 332.425 172.673 345.059C172.358 347.986 172.081 350.927 171.804 353.874L171.804 353.877L171.803 353.881C170.653 366.104 169.496 378.409 165.577 390.082C165.02 391.755 160.985 399.421 160.985 399.421C160.985 399.421 161.556 391.12 161.997 389.343C162.066 389.074 162.122 388.8 162.177 388.527C162.215 388.34 162.253 388.153 162.296 387.968C163.969 380.769 164.903 373.388 164.994 365.994C165.038 362.309 164.884 358.62 164.73 354.933Z" fill="#D8E8FF"/>
</g>
</svg>
