<svg width="139" height="250" viewBox="0 0 139 250" fill="none" xmlns="http://www.w3.org/2000/svg">
<g clip-path="url(#clip0_856_945)">
<path d="M82.6899 105.12L87.2199 19.59L125.2 0L138.88 40.48L82.6899 105.12Z" fill="#EEE4DA"/>
<path d="M108.73 8.5C110.7 12.5 114.09 15.82 118.55 17.62C122.79 19.33 127.28 19.39 131.32 18.1L125.2 0L108.73 8.5Z" fill="#ACBFBC"/>
<path d="M82.6899 105.12L112.81 70.47C109.17 67.22 104.91 64.52 100.13 62.59C95.2099 60.6 90.1299 59.58 85.1199 59.42L82.6999 105.12H82.6899Z" fill="#ACBFBC"/>
<path opacity="0.15" d="M125.2 0L138.88 40.48L82.6899 105.12" fill="black"/>
<path d="M87.3198 20.1C104.58 26.35 121.7 33.28 138.46 40.78C121.2 34.52 104.07 27.6 87.3198 20.1Z" fill="#38303B"/>
<g opacity="0.14">
<path d="M125.42 25.07C126.04 27.34 126.65 29.6 127.27 31.87C127.81 33.85 128.86 36.21 128.56 38.29C128.3 40.06 127.16 41.65 126.05 43C124.66 44.7 123.15 46.32 121.59 47.87C120 49.44 122.45 51.9 124.05 50.32C125.78 48.61 127.46 46.81 128.96 44.9C130.3 43.19 131.54 41.3 131.92 39.13C132.35 36.7 131.55 34.38 130.92 32.06C130.21 29.44 129.49 26.82 128.78 24.2C128.19 22.05 124.84 22.93 125.42 25.08V25.07Z" fill="white"/>
<path d="M115.98 54.41C113.92 56.73 111.86 59.06 109.81 61.38C109.21 62.06 109.09 63.18 109.81 63.83C110.47 64.43 111.62 64.55 112.26 63.83L118.43 56.86C119.03 56.18 119.15 55.06 118.43 54.41C117.77 53.81 116.62 53.69 115.98 54.41Z" fill="white"/>
</g>
<path d="M55.9299 255.79C56.8099 255.61 57.6399 255.19 58.0499 254.36C58.6199 253.46 59.8199 254.31 60.5399 254.55L62.1699 255.26C78.5499 262.21 96.0599 262.52 105.48 245.05C110.38 237.11 112.67 226.99 109.66 217.97C105.74 206.88 90.4099 198.61 82.9699 211.25C78.9799 217.51 84.0299 227.14 91.7899 223.51C96.0499 221.41 97.3499 215.93 96.3799 211.57C95.3799 206.94 91.7699 203.45 87.9199 200.94C79.8599 196.08 70.7599 192.86 61.7499 190.17C43.2099 185.39 23.3899 182.04 12.3699 164.31C7.30986 156.17 5.47986 145.75 8.70986 136.59C11.8999 127.51 20.4999 120.22 30.2699 119.71C42.2699 118.87 54.9599 130.97 50.5899 143.22C44.1099 158.98 25.1099 145.89 32.3599 132.21C42.2199 113.64 68.6899 122.3 81.2899 106.04C84.3999 102.44 86.7899 98.28 88.7899 93.98C84.9599 102.58 79.0399 110.94 70.0299 114.57C61.2299 118.32 51.3599 118.62 42.8499 122.89C36.6499 125.89 31.1199 132 31.3499 139.2C31.4699 143.82 34.9299 148.21 39.3599 149.48C46.9899 151.62 51.8999 142.76 50.6699 136.15C49.9699 131.52 47.1399 127.38 43.4099 124.6C31.0899 115.12 14.2199 123.13 9.51986 136.88C3.10986 156.1 17.2999 174.42 34.7399 181.34C43.4399 185.04 52.8699 186.67 62.0199 189.3C71.1299 192.06 80.2299 195.29 88.3899 200.25C92.3799 202.85 96.1599 206.58 97.1699 211.41C98.1899 216.1 96.7499 221.92 92.1399 224.18C87.2099 226.76 81.8099 223.25 80.9999 218.01C80.2199 213.07 83.2799 208.21 87.4499 205.78C96.5499 200.66 107.16 209.2 110.21 217.8C114.06 229.45 109.31 242.08 101.8 251.17C97.2799 256.85 90.0299 259.83 82.8799 259.98C75.0999 260.22 67.4899 257.89 60.4799 254.7C59.7699 254.51 58.7099 253.56 58.1299 254.41C57.6899 255.21 56.8199 255.67 55.9399 255.79H55.9299Z" fill="#38303B"/>
<path d="M110.28 221.74C108.68 221.58 107.07 221.6 105.46 221.78C104.64 221.87 103.68 222.11 103.34 222.84C103.13 223.29 103.24 223.82 103.43 224.26C103.62 224.71 103.89 225.12 104.02 225.59C104.24 226.38 104.11 227.39 104.81 227.85C105.15 228.07 105.61 228.09 106.02 227.97C106.42 227.85 106.78 227.6 107.1 227.33C107.39 227.09 107.66 226.82 107.9 226.54C108.33 226.04 108.68 225.49 109.11 225C109.55 224.51 110.09 224.07 110.74 223.91" fill="#ACBFBC"/>
<path d="M112.19 223.53C112.79 223.25 113.49 223.25 114.14 223.37C114.79 223.48 115.41 223.7 116.05 223.82C116.42 223.89 116.79 223.93 117.17 223.94C117.59 223.95 118.02 223.92 118.41 223.76C118.8 223.6 119.15 223.3 119.28 222.92C119.54 222.12 118.82 221.41 118.5 220.66C118.31 220.21 118.27 219.72 118.14 219.25C118.01 218.78 117.77 218.31 117.32 218.08C116.6 217.72 115.71 218.13 115 218.57C113.63 219.43 112.35 220.43 111.2 221.54" fill="#ACBFBC"/>
<path d="M111.5 223.95L111.71 223.88C112.33 223.66 112.66 223.01 112.46 222.43L112.25 221.82C112.05 221.24 111.38 220.94 110.76 221.16L110.55 221.23C109.93 221.45 109.6 222.1 109.8 222.68L110.01 223.29C110.21 223.87 110.88 224.17 111.5 223.95Z" fill="#ACBFBC"/>
<path d="M73.0901 193.74C71.6801 194.5 70.3402 195.41 69.1102 196.46C68.4802 197 67.8102 197.73 67.9402 198.52C68.0202 199.01 68.4002 199.39 68.8002 199.65C69.2002 199.91 69.6602 200.11 70.0302 200.43C70.6502 200.96 71.1101 201.87 71.9501 201.86C72.3601 201.86 72.7501 201.61 73.0201 201.29C73.2901 200.96 73.4501 200.56 73.5601 200.16C73.6601 199.8 73.7402 199.43 73.7802 199.06C73.8602 198.41 73.8402 197.75 73.9302 197.1C74.0202 196.45 74.2302 195.78 74.6802 195.29" fill="#D3414B"/>
<path d="M75.6803 194.16C76.0203 193.59 76.6103 193.2 77.2103 192.94C77.8103 192.67 78.4403 192.51 79.0503 192.25C79.3903 192.1 79.7303 191.93 80.0503 191.73C80.4003 191.51 80.7502 191.24 80.9902 190.89C81.2302 190.54 81.3502 190.1 81.2402 189.7C81.0102 188.89 80.0203 188.71 79.3303 188.26C78.9203 187.99 78.6102 187.61 78.2402 187.29C77.8702 186.97 77.4103 186.71 76.9103 186.77C76.1103 186.87 75.6003 187.71 75.2603 188.46C74.6003 189.93 74.0903 191.48 73.7603 193.04" fill="#D3414B"/>
<path d="M75.3401 194.9L75.4701 194.72C75.8601 194.2 75.7801 193.47 75.2901 193.1L74.7701 192.71C74.2801 192.34 73.5601 192.46 73.1701 192.99L73.0401 193.17C72.6501 193.69 72.7301 194.42 73.2201 194.79L73.7401 195.18C74.2301 195.55 74.9501 195.43 75.3401 194.9Z" fill="#D3414B"/>
<path d="M29.1901 178.67C27.7101 179.27 26.2801 180.04 24.9401 180.95C24.2601 181.42 23.5201 182.07 23.5601 182.88C23.5901 183.38 23.9201 183.79 24.3001 184.1C24.6801 184.41 25.1101 184.65 25.4401 185C26.0001 185.6 26.3601 186.55 27.1901 186.63C27.5901 186.67 28.0101 186.47 28.3101 186.17C28.6101 185.87 28.8101 185.49 28.9701 185.1C29.1101 184.75 29.2301 184.39 29.3101 184.03C29.4601 183.39 29.5101 182.74 29.6701 182.1C29.8301 181.46 30.1001 180.82 30.6101 180.38" fill="#ACBFBC"/>
<path d="M31.7199 179.37C32.1199 178.84 32.7399 178.52 33.3699 178.32C33.9999 178.12 34.6399 178.02 35.2699 177.83C35.6299 177.72 35.9799 177.58 36.3199 177.42C36.6999 177.23 37.0599 177.01 37.3399 176.69C37.6199 176.37 37.7899 175.94 37.7199 175.54C37.5799 174.71 36.6099 174.42 35.9799 173.9C35.5999 173.59 35.3299 173.17 34.9999 172.82C34.6699 172.47 34.2299 172.16 33.7299 172.17C32.9199 172.18 32.3199 172.96 31.8999 173.68C31.0899 175.08 30.4199 176.55 29.9199 178.08" fill="#ACBFBC"/>
<path d="M31.3101 180.06L31.4601 179.9C31.9001 179.42 31.9001 178.69 31.4601 178.27L30.9901 177.83C30.5401 177.41 29.8101 177.46 29.3701 177.93L29.2201 178.09C28.7801 178.57 28.7801 179.3 29.2201 179.72L29.6901 180.16C30.1401 180.58 30.8701 180.53 31.3101 180.06Z" fill="#ACBFBC"/>
<path d="M8.20996 139.92C7.17996 138.69 6.01996 137.56 4.74996 136.57C4.09996 136.06 3.24996 135.56 2.49996 135.84C2.02996 136.02 1.73996 136.46 1.55996 136.91C1.37996 137.36 1.27996 137.85 1.04996 138.27C0.649963 138.99 -0.140037 139.62 0.0299632 140.44C0.109963 140.84 0.429963 141.17 0.809963 141.37C1.17996 141.57 1.60996 141.64 2.02996 141.67C2.40996 141.7 2.77996 141.7 3.15996 141.67C3.80996 141.61 4.44996 141.47 5.10996 141.42C5.76996 141.37 6.45996 141.44 7.02996 141.79" fill="#D3414B"/>
<path d="M8.31982 142.53C8.94982 142.75 9.43982 143.25 9.81982 143.78C10.1998 144.31 10.4898 144.9 10.8598 145.44C11.0698 145.75 11.3098 146.04 11.5698 146.31C11.8598 146.61 12.1898 146.89 12.5798 147.06C12.9698 147.23 13.4298 147.26 13.7898 147.06C14.5298 146.67 14.5198 145.66 14.8198 144.9C14.9998 144.45 15.3098 144.06 15.5498 143.64C15.7898 143.22 15.9498 142.71 15.7898 142.24C15.5298 141.48 14.6098 141.14 13.7998 140.96C12.2198 140.61 10.6098 140.43 9.00982 140.41" fill="#D3414B"/>
<path d="M7.53005 142.35L7.73005 142.44C8.32005 142.72 9.02005 142.49 9.28005 141.94L9.56005 141.36C9.82005 140.8 9.56005 140.12 8.97005 139.84L8.77005 139.75C8.18005 139.47 7.48005 139.7 7.22005 140.25L6.94005 140.83C6.68005 141.39 6.94005 142.07 7.53005 142.35Z" fill="#D3414B"/>
<path d="M50.5402 136.72C49.1702 135.88 47.7102 135.19 46.1802 134.66C45.4002 134.39 44.4302 134.18 43.8102 134.69C43.4202 135.01 43.2902 135.52 43.2702 136.01C43.2502 136.5 43.3102 136.99 43.2202 137.47C43.0702 138.28 42.5202 139.13 42.9502 139.85C43.1602 140.2 43.5702 140.42 43.9802 140.48C44.4002 140.55 44.8202 140.48 45.2302 140.38C45.6002 140.29 45.9502 140.17 46.3002 140.02C46.9002 139.76 47.4602 139.41 48.0702 139.16C48.6802 138.91 49.3602 138.75 50.0102 138.89" fill="#ACBFBC"/>
<path d="M51.48 139.17C52.15 139.17 52.77 139.49 53.31 139.87C53.84 140.25 54.31 140.72 54.83 141.11C55.13 141.33 55.45 141.53 55.78 141.71C56.15 141.9 56.55 142.06 56.98 142.09C57.4 142.12 57.85 142 58.13 141.71C58.71 141.11 58.37 140.15 58.41 139.33C58.44 138.84 58.61 138.38 58.7 137.9C58.79 137.42 58.78 136.89 58.47 136.49C57.98 135.85 57 135.83 56.17 135.92C54.56 136.09 52.98 136.44 51.46 136.94" fill="#ACBFBC"/>
<path d="M50.6804 139.25L50.9004 139.28C51.5504 139.35 52.1404 138.92 52.2104 138.31L52.2804 137.67C52.3504 137.06 51.8804 136.5 51.2304 136.42L51.0104 136.39C50.3604 136.32 49.7704 136.75 49.7004 137.36L49.6304 138C49.5604 138.61 50.0304 139.17 50.6804 139.25Z" fill="#ACBFBC"/>
<path d="M82.3999 103.58C81.3699 102.35 80.2099 101.22 78.9399 100.23C78.2899 99.72 77.4399 99.22 76.6899 99.5C76.2199 99.68 75.9299 100.12 75.7499 100.57C75.5699 101.02 75.4699 101.51 75.2399 101.93C74.8399 102.65 74.0499 103.28 74.2199 104.1C74.2999 104.5 74.6199 104.83 74.9999 105.03C75.3699 105.23 75.7999 105.3 76.2199 105.33C76.5999 105.36 76.9699 105.36 77.3499 105.33C77.9999 105.27 78.6399 105.13 79.2999 105.08C79.9599 105.03 80.6499 105.1 81.2199 105.45" fill="#D3414B"/>
<path d="M82.5098 106.2C83.1398 106.42 83.6298 106.92 84.0098 107.45C84.3898 107.98 84.6798 108.57 85.0498 109.11C85.2598 109.42 85.4998 109.71 85.7598 109.98C86.0498 110.28 86.3798 110.56 86.7698 110.73C87.1598 110.89 87.6198 110.93 87.9798 110.73C88.7198 110.34 88.7098 109.33 89.0098 108.57C89.1898 108.12 89.4998 107.73 89.7398 107.31C89.9798 106.89 90.1398 106.38 89.9798 105.91C89.7198 105.15 88.7998 104.81 87.9898 104.63C86.4098 104.28 84.7998 104.1 83.1998 104.08" fill="#D3414B"/>
<path d="M81.72 106.02L81.92 106.11C82.51 106.39 83.21 106.16 83.47 105.61L83.75 105.03C84.01 104.47 83.75 103.79 83.16 103.51L82.96 103.42C82.37 103.14 81.67 103.37 81.41 103.92L81.13 104.5C80.87 105.06 81.13 105.74 81.72 106.02Z" fill="#D3414B"/>
</g>
<defs>
<clipPath id="clip0_856_945">
<rect width="139" height="250" fill="white"/>
</clipPath>
</defs>
</svg>
