<svg width="292" height="50" viewBox="0 0 292 50" fill="none" xmlns="http://www.w3.org/2000/svg">
<path d="M142.359 47.09V37.5425H144.35C145.05 37.5425 145.564 37.5789 145.9 37.6518C146.232 37.7246 146.519 37.846 146.758 38.0201C147.062 38.2467 147.296 38.5381 147.466 38.8902C147.632 39.2464 147.717 39.6309 147.717 40.0558C147.717 40.5617 147.596 40.9827 147.357 41.3226C147.114 41.6626 146.766 41.8973 146.305 42.035C146.871 42.1199 147.317 42.3749 147.644 42.7958C147.972 43.2168 148.138 43.7429 148.138 44.3824C148.138 44.7669 148.069 45.1311 147.928 45.4792C147.786 45.8272 147.596 46.1267 147.349 46.3736C147.078 46.6407 146.746 46.8269 146.353 46.9362C145.961 47.0455 145.293 47.0981 144.358 47.0981H142.367L142.359 47.09ZM143.468 38.526V41.7233H144.35C145.159 41.7233 145.73 41.6059 146.058 41.3712C146.386 41.1365 146.552 40.7398 146.552 40.1854C146.552 39.5742 146.398 39.1412 146.09 38.8983C145.783 38.6514 145.204 38.53 144.346 38.53H143.464L143.468 38.526ZM143.468 42.6137V46.0944H144.35C144.953 46.0944 145.39 46.0701 145.657 46.0215C145.924 45.9729 146.139 45.892 146.301 45.7746C146.495 45.637 146.653 45.4428 146.762 45.1959C146.871 44.949 146.932 44.6738 146.932 44.3743C146.932 44.0262 146.863 43.7227 146.73 43.4677C146.596 43.2127 146.398 43.0103 146.143 42.8687C145.989 42.7756 145.815 42.7108 145.617 42.6744C145.418 42.638 145.107 42.6137 144.686 42.6137H143.472H143.468Z" fill="#878787"/>
<path d="M149.64 47.0902V41.1245H150.546V42.3629C150.821 41.8449 151.113 41.4766 151.42 41.254C151.728 41.0314 152.104 40.9221 152.55 40.9221C152.671 40.9221 152.788 40.9302 152.902 40.9504C153.015 40.9707 153.128 40.999 153.242 41.0395L152.902 41.9582C152.784 41.9177 152.675 41.8894 152.57 41.8692C152.465 41.8489 152.368 41.8408 152.27 41.8408C151.732 41.8408 151.327 42.0351 151.056 42.4237C150.785 42.8122 150.651 43.399 150.651 44.1802V47.0902H149.64Z" fill="#878787"/>
<path d="M153.995 38.2469C153.995 38.0445 154.067 37.8665 154.213 37.7208C154.359 37.575 154.537 37.5022 154.743 37.5022C154.95 37.5022 155.124 37.575 155.27 37.7248C155.415 37.8745 155.488 38.0526 155.488 38.259C155.488 38.4654 155.415 38.6354 155.274 38.7811C155.132 38.9268 154.954 38.9956 154.743 38.9956C154.533 38.9956 154.359 38.9228 154.213 38.7811C154.067 38.6395 153.995 38.4614 153.995 38.2469ZM154.237 47.0902V41.1245H155.27V47.0902H154.237Z" fill="#878787"/>
<path d="M157.285 47.0901V41.1244H158.285V42.0431C158.54 41.6587 158.851 41.3753 159.211 41.1892C159.572 41.003 159.988 40.9099 160.462 40.9099C161.166 40.9099 161.717 41.0961 162.113 41.4725C162.51 41.8489 162.708 42.3669 162.708 43.0307V47.0941H161.664V43.5771C161.664 42.974 161.539 42.5248 161.284 42.2293C161.029 41.9379 160.636 41.7882 160.106 41.7882C159.802 41.7882 159.523 41.8448 159.276 41.9541C159.025 42.0634 158.819 42.2212 158.653 42.4276C158.527 42.5855 158.434 42.7636 158.382 42.9619C158.329 43.1602 158.301 43.5083 158.301 44.0061V47.0901H157.289H157.285Z" fill="#878787"/>
<path d="M170.147 41.1203V46.9848C170.147 47.6323 170.103 48.0937 170.018 48.3689C169.933 48.6441 169.787 48.887 169.589 49.1055C169.309 49.405 168.969 49.6276 168.569 49.7774C168.168 49.9271 167.707 50 167.185 50C166.282 50 165.574 49.7936 165.068 49.3807C164.562 48.9679 164.299 48.3811 164.275 47.6283H165.424V47.7052C165.424 48.1544 165.578 48.4984 165.885 48.7413C166.193 48.9841 166.63 49.1055 167.197 49.1055C167.605 49.1055 167.954 49.0408 168.245 48.9072C168.532 48.7737 168.755 48.5794 168.909 48.3163C169.002 48.1666 169.067 47.9966 169.103 47.8023C169.139 47.608 169.16 47.3247 169.16 46.9605V45.9568C168.929 46.3817 168.625 46.7095 168.253 46.9362C167.881 47.1628 167.46 47.2802 166.994 47.2802C166.136 47.2802 165.448 46.9888 164.922 46.406C164.4 45.8232 164.137 45.0502 164.137 44.0829C164.137 43.1156 164.392 42.3344 164.902 41.7638C165.412 41.1931 166.092 40.9058 166.942 40.9058C167.435 40.9058 167.873 41.0191 168.245 41.2417C168.617 41.4643 168.913 41.7962 169.131 42.2292V41.1203H170.147ZM169.156 44.1193C169.156 43.4515 168.973 42.9092 168.609 42.5004C168.245 42.0916 167.763 41.8892 167.168 41.8892C166.573 41.8892 166.076 42.0795 165.736 42.4559C165.396 42.8323 165.222 43.3625 165.222 44.0424C165.222 44.7628 165.396 45.3213 165.74 45.7099C166.084 46.1025 166.577 46.2967 167.209 46.2967C167.84 46.2967 168.294 46.1025 168.642 45.718C168.986 45.3335 169.16 44.7992 169.16 44.1152L169.156 44.1193Z" fill="#878787"/>
<path d="M171.892 38.2469C171.892 38.0445 171.964 37.8665 172.11 37.7208C172.256 37.575 172.434 37.5022 172.64 37.5022C172.847 37.5022 173.021 37.575 173.166 37.7248C173.312 37.8745 173.385 38.0526 173.385 38.259C173.385 38.4654 173.312 38.6354 173.171 38.7811C173.029 38.9268 172.851 38.9956 172.644 38.9956C172.438 38.9956 172.26 38.9228 172.114 38.7811C171.969 38.6395 171.896 38.4614 171.896 38.2469H171.892ZM172.134 47.0902V41.1245H173.166V47.0902H172.134Z" fill="#878787"/>
<path d="M175.182 47.0901V41.1244H176.178V42.0431C176.433 41.6587 176.744 41.3753 177.105 41.1892C177.465 41.003 177.882 40.9099 178.355 40.9099C179.059 40.9099 179.61 41.0961 180.006 41.4725C180.403 41.8489 180.601 42.3669 180.601 43.0307V47.0941H179.557V43.5771C179.557 42.974 179.432 42.5248 179.177 42.2293C178.922 41.9379 178.529 41.7882 177.999 41.7882C177.695 41.7882 177.416 41.8448 177.169 41.9541C176.918 42.0634 176.712 42.2212 176.546 42.4276C176.421 42.5855 176.332 42.7636 176.275 42.9619C176.222 43.1602 176.194 43.5083 176.194 44.0061V47.0901H175.182Z" fill="#878787"/>
<path d="M188.044 41.1203V46.9848C188.044 47.6323 188 48.0937 187.915 48.3689C187.83 48.6441 187.684 48.887 187.486 49.1055C187.206 49.405 186.866 49.6276 186.466 49.7774C186.065 49.9271 185.604 50 185.082 50C184.179 50 183.471 49.7936 182.965 49.3807C182.459 48.9679 182.196 48.3811 182.172 47.6283H183.321V47.7052C183.321 48.1544 183.475 48.4984 183.782 48.7413C184.09 48.9841 184.527 49.1055 185.094 49.1055C185.502 49.1055 185.851 49.0408 186.142 48.9072C186.429 48.7737 186.652 48.5794 186.806 48.3163C186.899 48.1666 186.964 47.9966 187 47.8023C187.036 47.608 187.057 47.3247 187.057 46.9605V45.9568C186.826 46.3817 186.522 46.7095 186.15 46.9362C185.778 47.1628 185.357 47.2802 184.891 47.2802C184.033 47.2802 183.345 46.9888 182.819 46.406C182.297 45.8232 182.034 45.0502 182.034 44.0829C182.034 43.1156 182.289 42.3344 182.799 41.7638C183.309 41.1931 183.989 40.9058 184.839 40.9058C185.332 40.9058 185.77 41.0191 186.142 41.2417C186.514 41.4643 186.81 41.7962 187.028 42.2292V41.1203H188.044ZM187.053 44.1193C187.053 43.4515 186.87 42.9092 186.506 42.5004C186.142 42.0916 185.66 41.8892 185.065 41.8892C184.47 41.8892 183.973 42.0795 183.633 42.4559C183.293 42.8323 183.119 43.3625 183.119 44.0424C183.119 44.7628 183.293 45.3213 183.637 45.7099C183.981 46.1025 184.474 46.2967 185.106 46.2967C185.737 46.2967 186.19 46.1025 186.539 45.718C186.883 45.3335 187.057 44.7992 187.057 44.1152L187.053 44.1193Z" fill="#878787"/>
<path d="M193.888 47.09V37.5425H198.923V38.5786H195.022V41.3186H198.923V42.3749H195.022V47.09H193.888Z" fill="#878787"/>
<path d="M205.743 41.1204V47.086H204.751V46.0054C204.513 46.4385 204.205 46.7704 203.837 47.0011C203.464 47.2277 203.048 47.3451 202.586 47.3451C201.728 47.3451 201.04 47.0496 200.514 46.4628C199.992 45.8719 199.729 45.0948 199.729 44.1234C199.729 43.1521 199.984 42.3588 200.494 41.7801C201.004 41.2013 201.684 40.9099 202.534 40.9099C203.035 40.9099 203.468 41.0232 203.833 41.2458C204.201 41.4684 204.496 41.8044 204.723 42.2455V41.1244H205.739L205.743 41.1204ZM204.751 44.1599C204.751 43.484 204.569 42.9416 204.201 42.5329C203.833 42.12 203.355 41.9177 202.764 41.9177C202.173 41.9177 201.671 42.1079 201.331 42.4843C200.992 42.8607 200.817 43.3909 200.817 44.0708C200.817 44.7912 200.992 45.3498 201.336 45.7383C201.68 46.1309 202.173 46.3252 202.805 46.3252C203.436 46.3252 203.889 46.1349 204.237 45.7545C204.581 45.3741 204.755 44.8439 204.755 44.1599H204.751Z" fill="#878787"/>
<path d="M215.958 47.0901V43.5731C215.958 42.97 215.837 42.5208 215.594 42.2253C215.351 41.9339 214.975 41.7842 214.473 41.7842C214.198 41.7842 213.947 41.8408 213.712 41.9501C213.477 42.0594 213.283 42.2172 213.121 42.4236C213.004 42.5815 212.919 42.7636 212.866 42.97C212.813 43.1764 212.789 43.5204 212.789 44.0021V47.0861H211.806V43.569C211.806 42.966 211.684 42.5167 211.441 42.2213C211.199 41.9299 210.822 41.7801 210.32 41.7801C210.045 41.7801 209.79 41.8368 209.555 41.9461C209.317 42.0553 209.118 42.2132 208.96 42.4196C208.847 42.5734 208.766 42.7474 208.718 42.9498C208.669 43.1481 208.641 43.5002 208.641 43.998V47.082H207.657V41.1164H208.653V42.0351C208.9 41.6506 209.195 41.3673 209.539 41.1811C209.883 40.9949 210.28 40.9019 210.725 40.9019C211.207 40.9019 211.62 41.0071 211.959 41.2135C212.299 41.4199 212.554 41.7194 212.728 42.116C212.983 41.7073 213.287 41.4037 213.639 41.2014C213.987 41.003 214.396 40.9019 214.853 40.9019C215.517 40.9019 216.039 41.088 216.411 41.4644C216.784 41.8408 216.974 42.3589 216.974 43.0226V47.0861H215.962L215.958 47.0901Z" fill="#878787"/>
<path d="M218.654 38.2469C218.654 38.0445 218.727 37.8665 218.872 37.7208C219.018 37.575 219.196 37.5022 219.403 37.5022C219.609 37.5022 219.783 37.575 219.929 37.7248C220.074 37.8745 220.147 38.0526 220.147 38.259C220.147 38.4654 220.074 38.6354 219.933 38.7811C219.791 38.9268 219.613 38.9956 219.403 38.9956C219.192 38.9956 219.018 38.9228 218.872 38.7811C218.727 38.6395 218.654 38.4614 218.654 38.2469ZM218.897 47.0902V41.1245H219.929V47.0902H218.897Z" fill="#878787"/>
<path d="M221.997 47.0901V36.98H223.041V47.0901H221.997Z" fill="#878787"/>
<path d="M224.858 38.2469C224.858 38.0445 224.931 37.8665 225.077 37.7208C225.222 37.575 225.4 37.5022 225.607 37.5022C225.813 37.5022 225.987 37.575 226.133 37.7248C226.279 37.8745 226.352 38.0526 226.352 38.259C226.352 38.4654 226.279 38.6354 226.137 38.7811C225.995 38.9268 225.817 38.9956 225.607 38.9956C225.396 38.9956 225.222 38.9228 225.077 38.7811C224.931 38.6395 224.858 38.4614 224.858 38.2469ZM225.101 47.0902V41.1245H226.133V47.0902H225.101Z" fill="#878787"/>
<path d="M233.475 44.2569H228.748V44.35C228.748 44.9895 228.93 45.5035 229.294 45.9001C229.658 46.2968 230.136 46.491 230.723 46.491C231.123 46.491 231.484 46.3818 231.803 46.1673C232.123 45.9527 232.41 45.629 232.657 45.1919L233.434 45.714C233.135 46.2522 232.75 46.661 232.285 46.9322C231.819 47.2034 231.281 47.345 230.666 47.345C229.755 47.345 229.023 47.0455 228.46 46.4465C227.898 45.8475 227.618 45.0583 227.618 44.087C227.618 43.1156 227.898 42.3871 228.452 41.7922C229.007 41.1972 229.723 40.8977 230.597 40.8977C231.471 40.8977 232.18 41.181 232.694 41.7436C233.208 42.3102 233.467 43.0792 233.467 44.0586V44.261L233.475 44.2569ZM232.378 43.4272C232.342 42.9011 232.168 42.4964 231.852 42.209C231.536 41.9257 231.107 41.78 230.557 41.78C230.063 41.78 229.646 41.9298 229.318 42.2252C228.99 42.5207 228.796 42.9213 228.744 43.4232H232.378V43.4272Z" fill="#878787"/>
<path d="M234.248 46.0824L235.122 45.4955C235.288 45.8112 235.495 46.05 235.75 46.2078C236.005 46.3657 236.3 46.4466 236.644 46.4466C236.988 46.4466 237.251 46.3657 237.458 46.1997C237.664 46.0338 237.769 45.8152 237.769 45.5481C237.769 45.3377 237.7 45.1636 237.559 45.026C237.417 44.8884 237.174 44.7589 236.83 44.6415C236.794 44.6294 236.737 44.6092 236.66 44.5808C235.207 44.079 234.483 43.4557 234.483 42.7029C234.483 42.1727 234.677 41.7396 235.07 41.4037C235.462 41.0678 235.968 40.9019 236.595 40.9019C237.114 40.9019 237.555 41.0071 237.927 41.2135C238.299 41.4199 238.562 41.7113 238.724 42.0918L237.895 42.6017C237.773 42.3265 237.595 42.116 237.356 41.9703C237.122 41.8206 236.846 41.7477 236.531 41.7477C236.215 41.7477 235.984 41.8327 235.798 41.9987C235.608 42.1646 235.515 42.3791 235.515 42.6422C235.515 43.0064 235.911 43.314 236.701 43.5609C236.85 43.6095 236.968 43.6459 237.053 43.6702C237.7 43.8806 238.15 44.1154 238.405 44.3825C238.66 44.6496 238.785 45.0017 238.785 45.4429C238.785 46.0095 238.583 46.4669 238.182 46.8149C237.781 47.163 237.255 47.3411 236.608 47.3411C236.049 47.3411 235.58 47.2358 235.191 47.0294C234.803 46.819 234.491 46.5073 234.256 46.0824H234.248Z" fill="#878787"/>
<path d="M245.766 47.09V38.6231H243.067V37.5425H249.603V38.6231H246.916V47.09H245.766Z" fill="#878787"/>
<path d="M248.559 44.1194C248.559 43.6823 248.64 43.2655 248.802 42.8769C248.964 42.4884 249.198 42.1403 249.506 41.8368C249.814 41.5332 250.166 41.3025 250.554 41.1406C250.947 40.9828 251.364 40.9019 251.805 40.9019C252.246 40.9019 252.651 40.9828 253.039 41.1447C253.428 41.3066 253.78 41.5413 254.1 41.8489C254.407 42.1484 254.642 42.4924 254.804 42.881C254.966 43.2695 255.047 43.6823 255.047 44.1154C255.047 44.5484 254.966 44.9613 254.804 45.3458C254.642 45.7303 254.407 46.0743 254.1 46.3738C253.784 46.6854 253.428 46.9242 253.035 47.0901C252.643 47.2561 252.234 47.337 251.805 47.337C251.376 47.337 250.951 47.2561 250.554 47.0942C250.162 46.9323 249.81 46.6975 249.502 46.394C249.194 46.0824 248.96 45.7343 248.798 45.3498C248.636 44.9653 248.555 44.5565 248.555 44.1154L248.559 44.1194ZM249.64 44.1194C249.64 44.7508 249.85 45.2851 250.271 45.7222C250.692 46.1593 251.202 46.3778 251.805 46.3778C252.408 46.3778 252.906 46.1593 253.323 45.7222C253.739 45.2851 253.95 44.7508 253.95 44.1194C253.95 43.4881 253.739 42.9538 253.323 42.5167C252.906 42.0796 252.4 41.8611 251.805 41.8611C251.21 41.8611 250.688 42.0796 250.271 42.5167C249.85 42.9538 249.644 43.4881 249.644 44.1194H249.64Z" fill="#878787"/>
<path d="M262.065 41.1203V46.9848C262.065 47.6323 262.02 48.0937 261.935 48.3689C261.85 48.6441 261.705 48.887 261.506 49.1055C261.227 49.405 260.887 49.6276 260.486 49.7774C260.086 49.9271 259.624 50 259.102 50C258.2 50 257.491 49.7936 256.986 49.3807C256.48 48.9679 256.217 48.3811 256.192 47.6283H257.342V47.7052C257.342 48.1544 257.496 48.4984 257.803 48.7413C258.111 48.9841 258.548 49.1055 259.114 49.1055C259.523 49.1055 259.871 49.0408 260.163 48.9072C260.45 48.7737 260.673 48.5794 260.826 48.3163C260.92 48.1666 260.984 47.9966 261.021 47.8023C261.057 47.608 261.077 47.3247 261.077 46.9605V45.9568C260.847 46.3817 260.543 46.7095 260.171 46.9362C259.798 47.1628 259.377 47.2802 258.912 47.2802C258.054 47.2802 257.366 46.9888 256.84 46.406C256.318 45.8232 256.055 45.0502 256.055 44.0829C256.055 43.1156 256.31 42.3344 256.82 41.7638C257.33 41.1931 258.01 40.9058 258.859 40.9058C259.353 40.9058 259.79 41.0191 260.163 41.2417C260.535 41.4643 260.83 41.7962 261.049 42.2292V41.1203H262.065ZM261.073 44.1193C261.073 43.4515 260.891 42.9092 260.527 42.5004C260.163 42.0916 259.681 41.8892 259.086 41.8892C258.491 41.8892 257.993 42.0795 257.653 42.4559C257.313 42.8323 257.139 43.3625 257.139 44.0424C257.139 44.7628 257.313 45.3213 257.657 45.7099C258.001 46.1025 258.495 46.2967 259.127 46.2967C259.758 46.2967 260.211 46.1025 260.559 45.718C260.903 45.3335 261.077 44.7992 261.077 44.1152L261.073 44.1193Z" fill="#878787"/>
<path d="M269.326 44.2569H264.598V44.35C264.598 44.9895 264.781 45.5035 265.145 45.9001C265.509 46.2968 265.987 46.491 266.574 46.491C266.974 46.491 267.334 46.3818 267.654 46.1673C267.974 45.9527 268.261 45.629 268.508 45.1919L269.285 45.714C268.986 46.2522 268.601 46.661 268.136 46.9322C267.67 47.2034 267.132 47.345 266.517 47.345C265.606 47.345 264.874 47.0455 264.311 46.4465C263.749 45.8475 263.469 45.0583 263.469 44.087C263.469 43.1156 263.748 42.3871 264.303 41.7922C264.857 41.1972 265.574 40.8977 266.448 40.8977C267.322 40.8977 268.031 41.181 268.545 41.7436C269.059 42.3102 269.318 43.0792 269.318 44.0586V44.261L269.326 44.2569ZM268.229 43.4272C268.192 42.9011 268.018 42.4964 267.703 42.209C267.387 41.9257 266.958 41.78 266.408 41.78C265.914 41.78 265.497 41.9298 265.169 42.2252C264.841 42.5207 264.647 42.9213 264.594 43.4232H268.225L268.229 43.4272Z" fill="#878787"/>
<path d="M270.888 41.9621H269.791V41.1203H270.888V38.7122H271.932V41.1203H273.029V41.9621H271.932V47.09H270.888V41.9621Z" fill="#878787"/>
<path d="M274.053 47.0901V36.98H275.048V42.0391C275.303 41.6546 275.615 41.3713 275.975 41.1851C276.335 40.9989 276.752 40.9058 277.226 40.9058C277.93 40.9058 278.48 41.092 278.877 41.4684C279.274 41.8448 279.472 42.3629 279.472 43.0266V47.0901H278.428V43.573C278.428 42.9699 278.302 42.5207 278.047 42.2252C277.792 41.9338 277.4 41.7841 276.87 41.7841C276.566 41.7841 276.287 41.8408 276.04 41.95C275.789 42.0593 275.583 42.2172 275.417 42.4236C275.291 42.5814 275.202 42.7595 275.146 42.9578C275.093 43.1561 275.065 43.5042 275.065 44.002V47.086H274.053V47.0901Z" fill="#878787"/>
<path d="M286.688 44.2569H281.961V44.35C281.961 44.9895 282.143 45.5035 282.508 45.9001C282.872 46.2968 283.349 46.491 283.936 46.491C284.337 46.491 284.697 46.3818 285.017 46.1673C285.337 45.9527 285.624 45.629 285.871 45.1919L286.648 45.714C286.348 46.2522 285.964 46.661 285.499 46.9322C285.033 47.2034 284.495 47.345 283.88 47.345C282.969 47.345 282.236 47.0455 281.674 46.4465C281.111 45.8475 280.832 45.0583 280.832 44.087C280.832 43.1156 281.111 42.3871 281.666 41.7922C282.22 41.1972 282.937 40.8977 283.811 40.8977C284.685 40.8977 285.393 41.181 285.907 41.7436C286.421 42.3102 286.68 43.0792 286.68 44.0586V44.261L286.688 44.2569ZM285.592 43.4272C285.555 42.9011 285.381 42.4964 285.065 42.209C284.75 41.9257 284.321 41.78 283.77 41.78C283.277 41.78 282.86 41.9298 282.532 42.2252C282.204 42.5207 282.01 42.9213 281.957 43.4232H285.592V43.4272Z" fill="#878787"/>
<path d="M288.109 47.0902V41.1245H289.015V42.3629C289.291 41.8449 289.582 41.4766 289.89 41.254C290.197 41.0314 290.574 40.9221 291.019 40.9221C291.14 40.9221 291.258 40.9302 291.371 40.9504C291.484 40.9707 291.598 40.999 291.711 41.0395L291.371 41.9582C291.254 41.9177 291.144 41.8894 291.039 41.8692C290.934 41.8489 290.837 41.8408 290.74 41.8408C290.201 41.8408 289.797 42.0351 289.525 42.4237C289.254 42.8122 289.121 43.399 289.121 44.1802V47.0902H288.109Z" fill="#878787"/>
<path d="M0 30.5651V3.84497H14.9102V7.53204H4.34272V14.2303H14.9102V18.0428H4.34272V26.6756H14.9102V30.561H0V30.5651Z" fill="#9439D7"/>
<path d="M33.9727 38.704H30.0145V28.3187C29.3102 29.3184 28.4846 30.059 27.5416 30.5447C26.5986 31.0304 25.5179 31.2732 24.3038 31.2732C21.8592 31.2732 19.9327 30.4354 18.5283 28.7639C17.1239 27.0924 16.4197 24.8016 16.4197 21.8916C16.4197 18.9816 17.136 16.9013 18.5728 15.2015C20.0096 13.5057 21.8835 12.6558 24.1945 12.6558C25.607 12.6558 26.8131 12.9512 27.8168 13.5421C28.8205 14.133 29.5531 14.9789 30.0145 16.0878V13.2588H33.9727V38.7V38.704ZM30.1237 21.8593C30.1237 20.0704 29.7069 18.6781 28.8731 17.6784C28.0394 16.6828 26.8738 16.1809 25.3803 16.1809C23.8869 16.1809 22.7051 16.6949 21.8511 17.7229C20.9931 18.751 20.5641 20.1756 20.5641 22.0009C20.5641 23.8262 20.9769 25.2549 21.8066 26.2546C22.6322 27.2543 23.8019 27.7521 25.3115 27.7521C26.8212 27.7521 27.9261 27.2178 28.8043 26.1453C29.6866 25.0768 30.1278 23.6441 30.1278 21.8552L30.1237 21.8593Z" fill="#9439D7"/>
<path d="M41.4116 13.2629V23.0088C41.4116 24.6884 41.7597 25.8904 42.4518 26.623C43.1438 27.3555 44.269 27.7198 45.8272 27.7198C47.3854 27.7198 48.5105 27.3555 49.2026 26.623C49.8947 25.8904 50.2427 24.6884 50.2427 23.0088V13.2629H54.201V21.8229C54.201 25.1336 53.5372 27.5336 52.2138 29.0311C50.8863 30.5286 48.7695 31.2773 45.8636 31.2773C42.9577 31.2773 40.764 30.5367 39.4406 29.0513C38.1131 27.566 37.4534 25.1579 37.4534 21.8229V13.2629H41.4116Z" fill="#9439D7"/>
<path d="M57.3337 5.77934C57.3337 5.11154 57.5806 4.53279 58.0744 4.04711C58.5682 3.56144 59.155 3.3186 59.835 3.3186C60.5149 3.3186 61.126 3.55335 61.5955 4.02283C62.065 4.49231 62.2997 5.07917 62.2997 5.78339C62.2997 6.48762 62.061 7.08257 61.5874 7.56419C61.1139 8.04582 60.527 8.28461 59.835 8.28461C59.1429 8.28461 58.5682 8.03772 58.0744 7.54395C57.5806 7.05019 57.3337 6.46333 57.3337 5.78339V5.77934ZM57.8639 30.5608V13.2587H61.8222V30.5608H57.8639Z" fill="#9439D7"/>
<path d="M66.5452 30.5648V16.7312H63.5178V13.2627H66.5452V6.71021H70.5034V13.2627H73.5308V16.7312H70.5034V30.5648H66.5452Z" fill="#9439D7"/>
<path d="M91.355 30.5649H87.3968V28.3187C86.6926 29.3184 85.8669 30.059 84.9239 30.5447C83.9809 31.0304 82.9003 31.2732 81.6861 31.2732C79.2415 31.2732 77.315 30.4354 75.9106 28.7639C74.5062 27.0924 73.802 24.8016 73.802 21.8916C73.802 18.9816 74.5184 16.9013 75.9551 15.2015C77.3919 13.5057 79.2658 12.6558 81.5768 12.6558C82.9893 12.6558 84.1954 12.9512 85.1991 13.5421C86.2028 14.133 86.9354 14.9789 87.3968 16.0878V13.2588H91.355V30.5609V30.5649ZM87.5061 21.8593C87.5061 20.0704 87.0892 18.6781 86.2555 17.6784C85.4217 16.6828 84.2561 16.1809 82.7627 16.1809C81.2692 16.1809 80.0874 16.6949 79.2334 17.7229C78.3754 18.751 77.9464 20.1756 77.9464 22.0009C77.9464 23.8262 78.3592 25.2549 79.1889 26.2546C80.0146 27.2543 81.1842 27.7521 82.6939 27.7521C84.1185 27.7521 85.276 27.2098 86.1705 26.1291C87.0649 25.0485 87.5101 23.6239 87.5101 21.8593H87.5061Z" fill="#9439D7"/>
<path d="M98.9234 2.27856V16.0919C99.3848 14.9951 100.125 14.1533 101.141 13.5543C102.157 12.9593 103.371 12.6598 104.784 12.6598C107.083 12.6598 108.949 13.5097 110.377 15.2056C111.806 16.9014 112.522 19.1314 112.522 21.8957C112.522 24.8016 111.818 27.0924 110.414 28.768C109.009 30.4395 107.083 31.2773 104.638 31.2773C103.42 31.2773 102.343 31.0344 101.4 30.5488C100.457 30.0631 99.6317 29.3184 98.9275 28.3228V30.569H94.9692V2.27856H98.9275H98.9234ZM98.7939 21.8593C98.7939 23.6239 99.2472 25.0485 100.154 26.1291C101.06 27.2138 102.23 27.7521 103.667 27.7521C105.104 27.7521 106.322 27.2543 107.143 26.2546C107.965 25.259 108.374 23.8384 108.374 22.0009C108.374 20.1635 107.945 18.751 107.087 17.723C106.229 16.6949 105.051 16.1809 103.558 16.1809C102.064 16.1809 100.894 16.6788 100.053 17.6784C99.2148 18.6781 98.7939 20.0704 98.7939 21.8593Z" fill="#9439D7"/>
<path d="M115.028 30.5649V2.27856H118.986V30.5649H115.028Z" fill="#9439D7"/>
<path d="M139.441 22.4987H125.607C125.704 24.1176 126.186 25.3803 127.048 26.2869C127.91 27.1935 129.059 27.6468 130.496 27.6468C131.775 27.6468 132.84 27.3797 133.69 26.8455C134.539 26.3112 135.284 25.4451 135.916 24.2552L139.255 26.117C138.279 27.8573 137.077 29.1524 135.64 30.0023C134.204 30.8523 132.52 31.2813 130.585 31.2813C127.813 31.2813 125.603 30.4354 123.96 28.7436C122.317 27.0519 121.495 24.7975 121.495 21.9725C121.495 19.1475 122.345 17.0308 124.041 15.2824C125.737 13.538 127.918 12.6638 130.581 12.6638C133.244 12.6638 135.539 13.4611 137.097 15.0558C138.656 16.6504 139.433 18.8804 139.433 21.754V22.5027L139.441 22.4987ZM135.333 19.8356C135.175 18.5931 134.701 17.6501 133.908 16.9984C133.115 16.3468 132.034 16.0231 130.658 16.0231C129.355 16.0231 128.311 16.3387 127.517 16.9701C126.724 17.6015 126.174 18.5566 125.858 19.8356H135.329H135.333Z" fill="#9439D7"/>
<path d="M160.745 6.34618C159.576 5.44769 158.22 4.80417 156.666 4.41968C155.116 4.03519 152.436 3.84497 148.628 3.84497H142.771V30.561H149.798C152.95 30.561 155.269 30.3708 156.759 29.9863C158.248 29.6018 159.58 28.9623 160.745 28.0598C162.291 26.8658 163.461 25.3562 164.258 23.5269C165.056 21.6975 165.452 19.5929 165.452 17.2212C165.452 14.8495 165.056 12.7368 164.258 10.8872C163.461 9.03762 162.291 7.52394 160.745 6.34214V6.34618ZM160.171 21.6651C159.665 22.9481 158.908 24.0206 157.9 24.8867C157.16 25.5181 156.285 25.9714 155.282 26.2385C154.278 26.5056 152.772 26.6392 150.765 26.6392H147.114V7.7344H150.255C152.493 7.7344 154.14 7.86796 155.193 8.13508C156.245 8.4022 157.147 8.85145 157.904 9.48687C158.912 10.3489 159.673 11.4255 160.175 12.7085C160.681 13.9915 160.932 15.4849 160.932 17.1888C160.932 18.8927 160.681 20.3862 160.175 21.6692L160.171 21.6651Z" fill="#333333"/>
<path d="M173.693 13.8499H169.35V30.561H173.693V13.8499Z" fill="#333333"/>
<path d="M190.497 13.8499L188.724 18.0793C188.396 18.832 188.109 19.5686 187.866 20.2891C187.623 21.0054 187.421 21.7016 187.263 22.3694C187.13 21.738 186.947 21.0702 186.717 20.37C186.486 19.6698 186.195 18.9089 185.843 18.0793L184.062 13.8499H179.642L187.263 31.6012L194.884 13.8499H190.497Z" fill="#333333"/>
<path d="M245.022 16.2295C245.58 15.5739 245.985 14.7806 246.24 13.8497H241.537C241.383 14.0764 241.209 14.2747 240.991 14.4285C240.238 14.9627 238.708 15.2299 236.409 15.2299H235.624V13.8457H231.281V30.5569H235.353V18.6053H235.847L244.734 30.5569H249.644L240.444 18.4029C242.464 18.1601 243.99 17.4316 245.026 16.2215L245.022 16.2295Z" fill="#333333"/>
<path d="M268.346 26.4004C266.918 26.959 265.412 27.2382 263.83 27.2382C261.118 27.2382 258.868 26.3033 257.087 24.4294C255.306 22.5555 254.416 20.1757 254.416 17.2941C254.416 16.0475 254.582 14.9021 254.905 13.8499H250.279C250.02 14.9426 249.887 16.0799 249.887 17.2577C249.887 19.2165 250.235 21.0621 250.935 22.7943C251.635 24.5266 252.635 26.0321 253.938 27.3111C255.253 28.6143 256.775 29.5978 258.507 30.2656C260.244 30.9334 262.13 31.2693 264.174 31.2693C265.78 31.2693 267.27 31.0629 268.646 30.6501C270.022 30.2373 271.293 29.6099 272.458 28.7721V23.8628C271.143 24.996 269.771 25.8419 268.342 26.4004H268.346Z" fill="#333333"/>
<path d="M173.693 3.84497H169.35V10.8832H173.693V3.84497Z" fill="#333333"/>
<path d="M182.815 10.8872L179.853 3.84497H175.344L178.367 10.8872H182.815Z" fill="#333333"/>
<path d="M196.155 10.8872L199.178 3.84497H194.69L191.74 10.8872H196.155Z" fill="#333333"/>
<path d="M235.624 10.8871V7.56836H236.409C238.599 7.56836 240.1 7.86786 240.91 8.4709C241.582 8.96871 241.958 9.78626 242.071 10.8831H246.56C246.523 9.79031 246.309 8.7704 245.9 7.83952C245.451 6.81556 244.811 5.98587 243.986 5.33831C243.294 4.80407 242.456 4.41958 241.476 4.18889C240.497 3.95819 239.121 3.84082 237.344 3.84082H231.285V10.879H235.628L235.624 10.8871Z" fill="#333333"/>
<path d="M256.415 11.5267C256.642 11.2231 256.885 10.9317 257.156 10.6565C258.989 8.7826 261.361 7.84768 264.283 7.84768C265.793 7.84768 267.229 8.11076 268.597 8.63286C269.965 9.15495 271.264 9.94012 272.495 10.9884L272.734 6.60922C271.394 5.68644 270.014 4.99436 268.589 4.53702C267.165 4.07967 265.671 3.85303 264.101 3.85303C262.105 3.85303 260.252 4.18895 258.536 4.86485C256.82 5.54074 255.298 6.53637 253.975 7.84768C252.874 8.92831 252.003 10.1627 251.336 11.5307H256.419L256.415 11.5267Z" fill="#333333"/>
<path d="M291.63 7.53204V3.84497H276.72V30.5651H291.63V26.6756H281.063V18.0428H291.63V14.2303H281.063V7.53204H291.63Z" fill="#333333"/>
<path d="M226.117 12.0811C225.437 10.4622 224.449 9.00924 223.15 7.72221C221.851 6.45946 220.382 5.49621 218.743 4.8365C218.031 4.54914 217.302 4.33059 216.553 4.1687L213.862 7.31748C213.838 7.34986 213.805 7.37414 213.773 7.39842C213.765 7.40247 213.753 7.41057 213.744 7.41461C213.716 7.4308 213.688 7.44294 213.659 7.45509C213.647 7.45913 213.635 7.46318 213.623 7.46723C213.583 7.47937 213.542 7.48746 213.498 7.48746C213.498 7.48746 213.485 7.48746 213.477 7.48746C213.477 7.48746 213.477 7.48746 213.473 7.48746C213.348 7.48746 213.218 7.41866 213.133 7.32153L210.474 4.18084C209.73 4.34273 209.005 4.56129 208.297 4.8446C206.65 5.5043 205.176 6.46755 203.877 7.7303C202.578 9.00519 201.595 10.4501 200.919 12.0609C200.247 13.6717 199.911 15.3877 199.911 17.209C199.911 19.0303 200.247 20.7585 200.919 22.3571C201.591 23.9558 202.578 25.3885 203.877 26.6553C205.152 27.906 206.621 28.8732 208.285 29.5532C209.948 30.2331 211.697 30.5691 213.53 30.5691C215.363 30.5691 217.067 30.2331 218.715 29.5613C220.362 28.8894 221.839 27.9221 223.15 26.6553C224.449 25.3926 225.437 23.9518 226.117 22.341C226.797 20.7301 227.133 19.0181 227.133 17.209C227.133 15.3999 226.793 13.7041 226.117 12.0852V12.0811ZM222.118 20.8475C221.649 22.001 220.973 23.029 220.091 23.9356C219.196 24.8381 218.192 25.5302 217.071 26.0037C215.95 26.4813 214.772 26.716 213.53 26.716C212.287 26.716 211.073 26.4773 209.948 26.0037C208.823 25.5302 207.819 24.8381 206.937 23.9356C206.055 23.033 205.383 22.005 204.917 20.8556C204.452 19.7062 204.221 18.492 204.221 17.2009C204.221 15.9098 204.452 14.6714 204.917 13.5139C205.383 12.3563 206.055 11.3283 206.937 10.4339C207.819 9.53134 208.823 8.83925 209.956 8.36572C211.085 7.89219 212.279 7.6534 213.53 7.6534C214.781 7.6534 215.975 7.89219 217.104 8.37382C218.233 8.85544 219.229 9.54348 220.087 10.4339C220.969 11.3364 221.645 12.3725 222.114 13.53C222.584 14.6916 222.818 15.9139 222.818 17.2009C222.818 18.4879 222.584 19.69 222.114 20.8435L222.118 20.8475Z" fill="#333333"/>
<path d="M217.29 2.04387C217.29 2.01959 217.278 1.9953 217.27 1.97507C217.27 1.97102 217.27 1.96697 217.266 1.95888L216.432 0.190222C216.432 0.190222 216.428 0.182127 216.424 0.17808C216.424 0.174033 216.424 0.165938 216.416 0.161891C216.408 0.149749 216.399 0.141655 216.391 0.13356C216.383 0.125465 216.375 0.113324 216.367 0.105229C216.355 0.0930873 216.339 0.0809454 216.327 0.0688036C216.318 0.0607091 216.31 0.0526145 216.298 0.0485673C216.282 0.0364254 216.262 0.0323782 216.246 0.0242836C216.238 0.0242836 216.225 0.0161891 216.217 0.0121418C216.189 0.00404727 216.161 0 216.128 0H211.215C211.187 0 211.158 0.00404727 211.13 0.0121418C211.122 0.0121418 211.11 0.0202364 211.102 0.0242836C211.085 0.0323782 211.069 0.0364254 211.053 0.04452C211.045 0.0485673 211.033 0.0566618 211.025 0.0647563C211.013 0.0728509 210.996 0.0849927 210.984 0.0971345C210.976 0.105229 210.968 0.117371 210.96 0.125465C210.952 0.137607 210.94 0.145702 210.932 0.157844L209.798 1.9265C209.798 1.9265 209.79 1.94269 209.79 1.94674C209.79 1.95078 209.782 1.95888 209.778 1.96293C209.778 1.97102 209.778 1.97507 209.774 1.98316C209.766 1.99935 209.762 2.01554 209.758 2.03173C209.758 2.04387 209.754 2.06006 209.75 2.0722C209.75 2.08839 209.75 2.10458 209.75 2.12077C209.75 2.13291 209.75 2.1491 209.754 2.16124C209.754 2.17743 209.762 2.19362 209.766 2.20981C209.77 2.22195 209.774 2.23814 209.782 2.25028C209.782 2.25433 209.782 2.25838 209.786 2.26242C209.79 2.27457 209.802 2.28266 209.806 2.29076C209.81 2.29885 209.815 2.30694 209.823 2.31504L213.243 6.35826C213.303 6.42707 213.388 6.47563 213.477 6.47563C213.481 6.47563 213.485 6.47563 213.493 6.47563C213.522 6.47563 213.55 6.47159 213.578 6.46349C213.587 6.46349 213.595 6.45945 213.603 6.4554C213.623 6.4473 213.643 6.43921 213.663 6.42707C213.672 6.42707 213.676 6.41897 213.684 6.41493C213.708 6.39874 213.728 6.38255 213.744 6.35826L217.201 2.31504C217.201 2.31504 217.209 2.3029 217.213 2.29885C217.217 2.29076 217.225 2.28671 217.229 2.27861C217.233 2.27052 217.237 2.26242 217.241 2.25433C217.245 2.24219 217.253 2.23409 217.257 2.22195C217.266 2.20576 217.27 2.18957 217.274 2.16934C217.274 2.1572 217.278 2.14505 217.282 2.13696C217.282 2.11672 217.282 2.10053 217.282 2.0803C217.282 2.06816 217.282 2.06006 217.282 2.04792L217.29 2.04387Z" fill="#ED6167"/>
</svg>
