<svg width="153" height="239" viewBox="0 0 153 239" fill="none" xmlns="http://www.w3.org/2000/svg">
<g clip-path="url(#clip0_856_986)">
<path d="M143.399 207.838C142.732 206.491 141.713 205.296 140.203 204.906C138.693 204.516 137.221 204.906 135.837 205.359C131.76 206.705 127.985 208.769 123.706 209.499C121.076 209.952 118.358 209.901 115.754 209.297C114.634 209.033 113.463 208.731 112.457 208.165C111.664 207.725 110.922 207.183 110.204 206.605C106.253 203.446 102.793 199.671 99.3073 196.022C97.986 194.651 96.6774 193.229 95.2681 191.945C92.9779 189.856 90.0712 188.359 86.9757 187.944C85.4154 187.73 83.8047 187.805 82.2821 188.233C80.6589 188.699 79.2495 189.592 77.7773 190.385C76.5316 191.064 75.1097 191.744 73.6374 191.542C72.5804 191.404 71.6241 190.825 70.8439 190.121C68.9187 188.409 67.61 186.069 66.3014 183.879C64.9046 181.539 63.4324 179.312 61.5952 177.286C57.4176 172.693 52.1074 169.27 46.4072 166.867C40.707 164.463 34.2518 162.966 27.9224 162.249C21.593 161.531 14.4583 161.091 8.40573 163.821C3.17109 166.187 -1.09464 171.875 0.239188 177.852C0.893518 180.809 3.09559 182.822 5.57449 184.37C8.0534 185.918 10.7462 187.226 12.684 189.567C16.0815 193.644 17.2392 199.055 19.8691 203.585C21.1148 205.724 22.7255 207.687 24.8646 208.97C27.2177 210.392 29.986 210.833 32.704 210.858C35.6233 210.883 38.5301 210.468 41.4494 210.266C44.1171 210.078 46.9483 210.002 49.4775 211.021C52.4975 212.242 53.8943 214.947 55.3036 217.69C56.7129 220.434 58.6759 222.799 61.482 224.372C67.7107 227.858 75.0467 227.203 81.8543 226.499C86.9505 225.97 91.9964 225.794 97.1052 225.995C102.214 226.197 106.832 226.7 111.576 227.757C116.32 228.814 121.202 230.475 125.191 233.42C126.99 234.753 128.576 236.402 129.759 238.302C130.187 238.994 131.269 238.352 130.841 237.673C125.669 229.368 114.797 226.662 105.725 225.467C101.396 224.888 97.0297 224.662 92.6633 224.636C90.1592 224.624 87.6552 224.687 85.1511 224.901C81.2251 225.24 77.3117 225.819 73.3732 225.819C67.0689 225.819 60.2488 223.982 56.952 218.156C55.4294 215.463 54.3095 212.531 51.6293 210.757C49.4649 209.323 46.835 208.933 44.2932 208.907C38.744 208.857 32.8173 210.694 27.4191 208.794C22.3606 207.02 20.1963 201.823 18.2458 197.268C17.2266 194.877 16.1948 192.448 14.7477 190.272C13.2 187.956 11.2118 186.27 8.83356 184.848C6.25399 183.313 3.25917 181.878 1.92535 179.009C0.717352 176.392 1.22068 173.272 2.50418 170.793C5.67516 164.69 12.986 163.016 19.328 162.966C25.67 162.915 32.1629 163.796 38.3036 165.432C44.4442 167.068 50.0689 169.497 55.0897 173.158C57.6063 174.995 59.9091 177.16 61.8846 179.576C63.5205 181.576 64.7536 183.854 66.1126 186.056C67.3709 188.107 68.7677 190.259 70.7558 191.668C72.8698 193.166 75.1852 192.99 77.4501 191.92C78.9853 191.19 80.3695 190.171 81.9801 189.605C83.4901 189.076 85.1008 188.938 86.6737 189.152C89.7062 189.542 92.4997 191.089 94.6892 193.178C97.9734 196.312 100.993 199.734 104.227 202.918C105.951 204.616 107.713 206.29 109.613 207.775C111.261 209.058 112.885 209.864 114.923 210.392C119.856 211.663 124.851 210.87 129.57 209.134C131.432 208.442 133.257 207.611 135.119 206.919C136.453 206.416 137.988 205.837 139.435 206.038C140.882 206.24 141.663 207.284 142.254 208.467C142.619 209.197 143.701 208.555 143.336 207.838H143.399Z" fill="#9EB4B1"/>
<path d="M138.039 228.386C137.095 225.505 134.54 223.579 131.974 222.233C129.344 220.874 126.525 219.943 123.669 219.15C117.956 217.59 112.105 216.533 106.278 215.388C100.452 214.255 94.6138 213.11 88.8381 211.651C83.0623 210.166 77.3747 208.429 71.8003 206.265C66.2385 204.075 60.9032 201.295 55.9202 198.01C50.8743 194.713 46.5583 190.548 42.1667 186.572C37.8129 182.571 33.3332 178.645 28.0609 175.964C22.8891 173.221 16.8869 171.673 10.9854 172.655C16.8366 171.372 23.0275 172.718 28.3629 175.36C33.7737 177.965 38.4421 181.841 42.8839 185.779C47.3133 189.743 51.6293 193.833 56.5745 197.004C61.5449 200.175 66.767 202.968 72.2407 205.183C77.7144 207.372 83.4021 209.121 89.1023 210.694C94.8151 212.229 100.629 213.45 106.442 214.658C112.256 215.866 118.094 217.036 123.794 218.735C126.638 219.603 129.469 220.597 132.087 222.032C134.666 223.441 137.183 225.492 138.039 228.399V228.386Z" fill="#ACBFBC"/>
<path d="M130.778 181.677C126.059 176.933 122.259 171.346 120.296 164.904C118.736 159.782 118.371 154.447 118.245 149.112C118.119 144.167 118.132 139.171 117.163 134.301C116.106 129.029 113.74 124.209 110.204 120.158C109.122 118.912 107.939 117.754 106.706 116.659C105.397 115.502 103.95 114.508 102.629 113.363C100.012 111.085 98.0111 108.178 96.5388 105.045C95.205 102.226 94.1983 99.219 94.3619 96.0606C94.5255 92.9022 95.7335 90.1465 97.9733 88.108C100.427 85.8682 103.887 85.0251 106.064 82.4581C107.952 80.2183 108.304 77.3745 107.7 74.581C107.033 71.4729 105.46 68.5914 103.925 65.8356C102.201 62.7276 100.641 59.5692 99.4959 56.1968C94.9533 42.7831 96.2494 27.7964 102.981 15.3264C106.014 9.72682 110.431 4.37893 116.622 2.21461C121.642 0.465533 128.639 0.792698 132.439 4.95776C134.754 7.51217 134.817 11.0481 135.069 14.2945C135.308 17.1887 135.924 19.8564 137.434 22.373C140.14 26.8652 144.33 30.1998 147.665 34.1887C149.25 36.0888 150.722 38.2028 151.377 40.6188C152.031 43.0347 151.729 45.3249 150.848 47.5647C148.973 52.3338 145.211 56.0836 142.556 60.3997C141.373 62.3123 140.354 64.4137 140.064 66.6661C139.737 69.1702 140.467 71.5484 141.876 73.6247C143.776 76.4056 146.431 78.6328 147.577 81.8919C148.722 85.151 148.42 88.712 147.4 91.9837C146.381 95.2553 144.28 98.2376 143.512 101.711C142.745 105.184 142.745 108.682 141.537 111.991C140.895 113.753 139.788 115.288 138.957 116.949C138.127 118.61 137.46 120.246 136.906 121.957C135.824 125.317 135.245 128.84 135.119 132.363C134.993 135.887 135.32 139.41 135.937 142.883C136.075 143.676 137.296 143.336 137.145 142.543C135.836 135.132 136.038 127.443 138.806 120.372C140.152 116.911 142.48 113.954 143.349 110.317C144.179 106.87 144.167 103.258 145.324 99.8734C145.916 98.1243 146.935 96.5766 147.665 94.8904C148.394 93.2043 148.898 91.6062 149.225 89.8949C149.842 86.6358 149.653 83.2635 148.231 80.2309C146.809 77.1983 144.041 75.0214 142.38 72.1021C141.134 69.9252 140.958 67.4966 141.7 65.1184C143.223 60.2487 147.161 56.3982 149.867 52.1576C151.163 50.1191 152.333 47.9045 152.786 45.5136C153.239 43.1228 152.924 40.7698 151.968 38.5677C149.879 33.7609 145.576 30.2627 142.128 26.4626C140.354 24.5122 138.655 22.4233 137.573 19.9948C136.214 16.9496 136.415 13.6151 135.975 10.3937C135.572 7.43667 134.402 4.78159 131.998 2.93185C129.784 1.23311 127.028 0.402616 124.285 0.138367C118.031 -0.46563 112.155 2.18944 107.801 6.581C103.132 11.2997 100.024 17.6165 98.0236 23.883C95.8845 30.5899 95.1169 37.7372 95.7712 44.7461C96.4256 51.755 98.4766 58.4996 101.799 64.6528C104.466 69.598 109.852 77.4752 104.403 82.433C101.924 84.6854 98.527 85.5662 96.2494 88.1206C94.3116 90.2975 93.2672 93.1036 93.091 96.0103C92.9023 99.0555 93.7705 101.937 94.9659 104.693C96.3249 107.864 98.1998 110.871 100.666 113.325C101.924 114.583 103.397 115.59 104.768 116.722C106.14 117.855 107.335 118.962 108.493 120.208C110.519 122.372 112.255 124.801 113.564 127.481C115.842 132.137 116.559 137.283 116.798 142.417C117.037 147.551 116.899 152.912 117.578 158.134C118.333 163.91 120.145 169.446 123.241 174.404C125.115 177.399 127.393 180.13 129.884 182.634C130.451 183.212 131.344 182.319 130.778 181.74V181.677Z" fill="#9EB4B1"/>
<path d="M137.07 158.033C134.603 155.932 132.691 153.264 131.017 150.508C129.356 147.74 127.909 144.833 126.625 141.864C124.033 135.937 122.02 129.759 120.46 123.48C119.68 120.334 119.025 117.163 118.572 113.941C118.132 110.733 117.817 107.461 118.144 104.177C118.824 97.7216 120.12 91.3797 121.013 85.0125C121.907 78.658 122.385 72.2153 121.479 65.8985C120.548 59.5817 118.396 53.4789 116.483 47.313C114.596 41.1598 112.91 34.7549 113.098 28.2116C113.136 24.9526 113.715 21.7061 114.797 18.6358C115.892 15.578 117.628 12.7594 119.843 10.4063C117.742 12.86 116.131 15.7039 115.15 18.749C114.181 21.8068 113.753 25.0155 113.765 28.2116C113.715 34.6417 115.502 40.883 117.503 46.9859C119.453 53.1139 121.668 59.242 122.674 65.7224C123.152 68.9563 123.303 72.2405 123.19 75.487C123.052 78.7461 122.687 81.98 122.209 85.1761C121.265 91.581 119.931 97.8978 119.214 104.29C118.849 107.423 119.101 110.645 119.503 113.816C119.919 116.999 120.523 120.158 121.252 123.291C122.725 129.557 124.662 135.711 127.078 141.675C128.299 144.657 129.671 147.577 131.269 150.37C132.879 153.151 134.691 155.856 137.095 158.033H137.07Z" fill="#ACBFBC"/>
<path d="M130.224 201.634C124.901 201.295 119.491 200.753 114.571 198.514C108.581 195.783 103.661 191.115 99.1309 186.446C96.4884 183.728 93.9591 180.784 90.1338 179.802C87.4662 179.123 84.7482 179.576 82.0931 180.092C79.2619 180.633 76.3929 181.111 73.5742 180.243C70.6046 179.324 68.2264 177.248 66.5528 174.681C64.8792 172.114 63.8851 169.27 63.3189 166.326C62.8155 163.733 62.6268 160.94 63.1805 158.348C63.4573 157.027 63.9355 155.743 64.2626 154.434C64.6905 152.786 65.0554 151.125 65.4077 149.451C65.7097 147.967 66.0872 146.419 66.1501 144.896C66.213 143.374 65.8733 141.876 65.2567 140.48C63.9229 137.46 61.3685 135.119 58.8015 133.131C56.0835 131.017 53.1138 129.255 50.3329 127.217C44.3433 122.813 39.1087 117.377 34.8555 111.286C30.6024 105.196 27.3056 98.4641 25.1664 91.3671C23.0272 84.2701 21.6179 76.2294 22.7504 68.755C23.3292 64.98 24.6379 61.1043 27.1923 58.1976C29.3566 55.7187 32.3011 53.9319 35.5098 53.2398C38.7186 52.5477 42.2545 53.202 44.8592 55.4167C47.6024 57.7446 49.2885 61.0037 51.4654 63.8097C55.404 68.8808 61.2804 71.108 67.1316 73.2094C72.6053 75.1724 78.8089 77.2487 82.0176 82.4833C85.4403 88.0325 84.5091 95.0917 84.4714 101.295C84.4462 104.366 84.5469 107.537 85.478 110.494C86.4092 113.451 88.2715 116.018 90.9392 117.716C94.1101 119.742 97.9103 120.573 100.893 122.913C103.648 125.065 105.636 128.085 107.046 131.256C108.455 134.427 109.386 138.001 109.65 141.499C109.94 145.5 108.807 149.3 107.914 153.151C107.109 156.649 106.605 160.286 107.423 163.834C108.103 166.779 109.499 169.522 111.11 172.064C114.885 178.016 119.881 183.112 124.713 188.208C126.764 190.372 128.84 192.537 130.753 194.839C131.269 195.468 132.162 194.562 131.646 193.946C127.305 188.724 122.322 184.081 117.893 178.934C115.59 176.254 113.388 173.46 111.576 170.415C110.028 167.798 108.682 164.916 108.354 161.859C107.914 157.92 108.996 154.082 109.902 150.295C110.355 148.42 110.745 146.52 110.896 144.594C111.047 142.669 110.896 140.668 110.569 138.731C109.474 132.112 106.379 125.002 100.603 121.177C97.2811 118.975 93.1161 118.22 90.0961 115.54C87.8059 113.501 86.6231 110.695 86.1198 107.725C85.025 101.245 86.4973 94.601 85.3648 88.1206C84.8363 85.088 83.666 82.2191 81.6401 79.866C79.6142 77.5129 77.1353 76.0155 74.4677 74.7698C68.8303 72.1273 62.5513 70.8815 57.2663 67.484C54.2715 65.5588 52.2456 62.8911 50.2574 59.997C48.2693 57.1028 46.2182 54.2213 43.0095 52.7616C36.9192 49.9933 29.5328 53.051 25.6446 58.1095C20.8503 64.3634 20.6238 72.9452 21.555 80.4322C22.4862 87.8438 24.6379 95.054 27.8592 101.799C31.0805 108.543 35.3714 114.797 40.518 120.233C43.0472 122.913 45.803 125.367 48.7349 127.607C51.629 129.822 54.7748 131.671 57.6816 133.873C60.2863 135.862 63.0169 138.252 64.2626 141.373C65.5084 144.494 64.5395 147.665 63.86 150.735C63.4825 152.446 63.0798 154.158 62.589 155.844C62.2493 157.039 61.897 158.172 61.746 159.405C61.4062 162.148 61.6956 164.967 62.2996 167.647C63.646 173.498 67.0058 179.475 73.0332 181.438C75.8266 182.344 78.7082 182.055 81.5269 181.526C84.3455 180.998 87.0887 180.369 89.8696 181.098C93.8711 182.155 96.438 185.603 99.2189 188.409C101.786 190.989 104.454 193.48 107.373 195.67C111.727 198.941 116.571 201.144 121.932 202.075C124.662 202.54 127.431 202.767 130.199 202.956C131.004 203.006 131.004 201.748 130.199 201.697L130.224 201.634Z" fill="#ACBFBC"/>
<path d="M130.212 197.318C124.121 193.707 118.295 189.642 112.708 185.251C107.146 180.847 101.849 176.065 97.2308 170.642C94.9532 167.911 92.8267 165.004 91.216 161.771C89.6431 158.574 88.3093 155.265 87.0258 151.956C84.4714 145.349 82.1309 138.655 78.6327 132.552C75.1346 126.474 70.5794 121.051 65.6845 115.967C60.8022 110.859 55.6053 106.039 50.8363 100.754C46.0798 95.4819 41.8015 89.681 38.7563 83.2257C35.7615 76.7957 34.0879 69.5477 35.1701 62.5011C34.3899 69.5855 36.1894 76.6824 39.3352 82.9489C42.4558 89.2657 46.7719 94.9282 51.5787 100.075C56.3981 105.234 61.5824 110.053 66.5276 115.162C71.4477 120.258 76.1916 125.682 79.7023 131.948C83.2382 138.189 85.541 144.959 88.0576 151.553C89.3033 154.862 90.6372 158.134 92.1346 161.318C93.6446 164.463 95.6957 167.345 97.8977 170.075C102.377 175.511 107.612 180.318 113.035 184.823C118.484 189.328 124.235 193.48 130.186 197.306L130.212 197.318Z" fill="#9EB4B1"/>
</g>
<defs>
<clipPath id="clip0_856_986">
<rect width="153" height="238.642" fill="white"/>
</clipPath>
</defs>
</svg>
